<svg xmlns:xlink="http://www.w3.org/1999/xlink" xmlns="http://www.w3.org/2000/svg" width="25" height="24" viewBox="0 0 25 24" fill="none">
<path d="M12.5 0.000406497C10.8716 -0.0127788 9.25654 0.294917 7.74705 0.905924C6.23757 1.51693 4.86321 2.41928 3.70247 3.56145C2.54173 4.70362 1.61733 6.06324 0.982055 7.56268C0.346782 9.06212 0.0130794 10.672 0 12.3004C0.0108122 14.8998 0.843305 17.4291 2.37842 19.5268C3.91354 21.6244 6.07266 23.1829 8.547 23.9794C9.172 24.0954 9.401 23.7144 9.401 23.3874C9.401 23.0954 9.391 22.3214 9.385 21.2954C5.908 22.0374 5.175 19.6444 5.175 19.6444C4.94106 18.8976 4.44767 18.2591 3.784 17.8444C2.652 17.0814 3.872 17.0974 3.872 17.0974C4.26665 17.1491 4.6443 17.2902 4.97616 17.5099C5.30802 17.7297 5.58535 18.0223 5.787 18.3654C6.13679 18.9811 6.71534 19.434 7.39704 19.6257C8.07873 19.8175 8.80854 19.7325 9.428 19.3894C9.48486 18.7632 9.76613 18.1786 10.22 17.7434C7.444 17.4354 4.526 16.3774 4.526 11.6634C4.50848 10.4379 4.96988 9.25392 5.812 8.36341C5.41925 7.30349 5.45839 6.13174 5.921 5.10041C5.921 5.10041 6.968 4.77041 9.358 6.36241C11.4045 5.80867 13.5615 5.80867 15.608 6.36241C17.983 4.77541 19.03 5.10041 19.03 5.10041C19.484 6.13076 19.5287 7.29529 19.155 8.35741C19.9936 9.2498 20.4529 10.433 20.436 11.6574C20.436 16.3844 17.514 17.4244 14.736 17.7274C15.0317 18.0242 15.2601 18.3812 15.4057 18.7741C15.5514 19.167 15.6108 19.5865 15.58 20.0044C15.58 21.6514 15.564 22.9744 15.564 23.3734C15.564 23.6954 15.783 24.0804 16.423 23.9574C18.9025 23.1724 21.0689 21.6208 22.6102 19.526C24.1516 17.4311 24.9883 14.9012 25 12.3004C24.9869 10.672 24.6532 9.06212 24.0179 7.56268C23.3827 6.06324 22.4583 4.70362 21.2975 3.56145C20.1368 2.41928 18.7624 1.51693 17.2529 0.905924C15.7435 0.294917 14.1284 -0.0127788 12.5 0.000406497Z" fill="white"/>
</svg>