<svg xmlns:xlink="http://www.w3.org/1999/xlink" xmlns="http://www.w3.org/2000/svg" width="24" height="24" viewBox="0 0 24 24" fill="none">
<path d="M17.377 0H6.623C4.86712 0.00211711 3.18376 0.700575 1.94217 1.94217C0.700575 3.18376 0.00211711 4.86712 0 6.623L0 17.377C0.00211711 19.1329 0.700575 20.8162 1.94217 22.0578C3.18376 23.2994 4.86712 23.9979 6.623 24H17.377C19.1329 23.9979 20.8162 23.2994 22.0578 22.0578C23.2994 20.8162 23.9979 19.1329 24 17.377V6.623C23.9979 4.86712 23.2994 3.18376 22.0578 1.94217C20.8162 0.700575 19.1329 0.00211711 17.377 0V0ZM21.871 17.377C21.8694 18.5684 21.3954 19.7105 20.553 20.553C19.7105 21.3954 18.5684 21.8694 17.377 21.871H6.623C5.4316 21.8694 4.28946 21.3954 3.44702 20.553C2.60457 19.7105 2.13059 18.5684 2.129 17.377V6.623C2.13059 5.4316 2.60457 4.28946 3.44702 3.44702C4.28946 2.60457 5.4316 2.13059 6.623 2.129H17.377C18.5684 2.13059 19.7105 2.60457 20.553 3.44702C21.3954 4.28946 21.8694 5.4316 21.871 6.623V17.377Z" fill="white"/>
<path d="M11.9999 5.79492C10.7727 5.79492 9.57302 6.15884 8.55261 6.84065C7.5322 7.52247 6.73689 8.49155 6.26725 9.62537C5.79761 10.7592 5.67473 12.0068 5.91415 13.2105C6.15357 14.4141 6.74454 15.5197 7.61233 16.3875C8.48011 17.2553 9.58574 17.8463 10.7894 18.0857C11.993 18.3251 13.2407 18.2022 14.3745 17.7326C15.5083 17.263 16.4774 16.4676 17.1592 15.4472C17.841 14.4268 18.2049 13.2272 18.2049 11.9999C18.2031 10.3548 17.5487 8.77763 16.3855 7.61437C15.2222 6.45111 13.645 5.79677 11.9999 5.79492ZM11.9999 16.0679C11.1954 16.0677 10.409 15.829 9.74014 15.3819C9.07129 14.9347 8.55004 14.2993 8.2423 13.556C7.93455 12.8126 7.85414 11.9947 8.01121 11.2057C8.16829 10.4166 8.55581 9.69188 9.12477 9.12306C9.69373 8.55424 10.4186 8.1669 11.2077 8.01001C11.9968 7.85313 12.8146 7.93375 13.5579 8.24168C14.3012 8.5496 14.9365 9.07101 15.3834 9.73996C15.8304 10.4089 16.0689 11.1954 16.0689 11.9999C16.0676 13.0786 15.6384 14.1127 14.8756 14.8753C14.1128 15.638 13.0786 16.0669 11.9999 16.0679Z" fill="white"/>
<path d="M18.4472 4.01318C18.0874 4.01339 17.7389 4.13833 17.4609 4.3667C17.183 4.59508 16.9928 4.91276 16.9228 5.26563C16.8528 5.61851 16.9073 5.98473 17.0771 6.30191C17.2468 6.61909 17.5213 6.8676 17.8537 7.00511C18.1861 7.14261 18.556 7.1606 18.9002 7.05601C19.2444 6.95142 19.5417 6.73072 19.7414 6.43151C19.9411 6.1323 20.0309 5.7731 19.9955 5.4151C19.9601 5.0571 19.8017 4.72246 19.5472 4.46818C19.2549 4.17727 18.8595 4.01371 18.4472 4.01318Z" fill="white"/>
</svg>