<svg xmlns:xlink="http://www.w3.org/1999/xlink" xmlns="http://www.w3.org/2000/svg" width="24" height="24" viewBox="0 0 24 24" fill="none">
<path d="M23.994 23.9999H24V15.1999C24 10.8939 23.0744 7.57685 18.0479 7.57685C17.1041 7.54171 16.1684 7.76378 15.3407 8.21938C14.513 8.67498 13.8243 9.34702 13.348 10.1639H13.2781V7.97585H8.51221V23.9999H13.4748V16.0649C13.4748 13.9759 13.8742 11.9559 16.4533 11.9559C18.9985 11.9559 19.0364 14.3398 19.0364 16.1988V23.9999H23.994Z" fill="white"/>
<path d="M0.436035 7.97705H5.4006V24H0.436035V7.97705Z" fill="white"/>
<path d="M2.91358 5.5543e-05C2.33936 -0.003503 1.77704 0.164004 1.29811 0.481287C0.819177 0.79857 0.445252 1.2513 0.223862 1.78193C0.00247159 2.31257 -0.0563859 2.89714 0.0547702 3.46136C0.165926 4.02558 0.442076 4.54396 0.848121 4.95061C1.25417 5.35726 1.77177 5.63383 2.33514 5.74515C2.89851 5.85647 3.48222 5.79753 4.01206 5.5758C4.5419 5.35408 4.99395 4.9796 5.31076 4.49995C5.62756 4.02029 5.79482 3.45714 5.79127 2.88206C5.791 2.11778 5.48773 1.38489 4.94812 0.844467C4.40851 0.304044 3.67671 0.000320593 2.91358 5.5543e-05Z" fill="white"/>
</svg>