<svg xmlns:xlink="http://www.w3.org/1999/xlink" xmlns="http://www.w3.org/2000/svg" width="32" height="18" viewBox="0 0 32 18" fill="none">
<path d="M9 18C13.9706 18 18 13.9706 18 9C18 4.02944 13.9706 0 9 0C4.02944 0 0 4.02944 0 9C0 13.9706 4.02944 18 9 18Z" fill="white"/>
<path d="M23.5 17C25.9853 17 28 13.4183 28 9C28 4.58172 25.9853 1 23.5 1C21.0147 1 19 4.58172 19 9C19 13.4183 21.0147 17 23.5 17Z" fill="white"/>
<path d="M30.5 16C31.3284 16 32 12.866 32 9C32 5.13401 31.3284 2 30.5 2C29.6716 2 29 5.13401 29 9C29 12.866 29.6716 16 30.5 16Z" fill="white"/>
</svg>