<svg xmlns="http://www.w3.org/2000/svg" width="516" height="358" viewBox="0 0 516 358"><defs><style>.a,.g,.h{fill:#fff;}.b,.f{fill:#082847;}.b,.h,.i,.l{opacity:0.4;}.c{fill:#1dcef2;}.d{fill:#8655e9;}.e{fill:#d8d8d8;}.f{opacity:0.2;}.g{opacity:0.8;}.j,.p{fill:none;}.j{stroke:#fff;stroke-width:2px;}.j,.m,.n{stroke-linecap:round;stroke-linejoin:round;}.k{opacity:0.3;}.l{fill:#9d9d9d;}.m,.n{fill:#f6f6f6;}.m{stroke:#e2e2e2;}.n{stroke:#e3e3e3;}.o{stroke:none;}</style></defs><g transform="translate(-694 -438)"><g transform="translate(0 -4)"><path class="a" d="M16,0H140a16,16,0,0,1,16,16V296a16,16,0,0,1-16,16H16A16,16,0,0,1,0,296V16A16,16,0,0,1,16,0Z" transform="translate(1054 448)"/><rect class="b" width="136" height="15" rx="4" transform="translate(1064 476)"/><rect class="b" width="84" height="14" rx="4" transform="translate(1064 497)"/><rect class="c" width="62" height="51" rx="4" transform="translate(1064 545)"/><rect class="d" width="136" height="41" rx="4" transform="translate(1064 628)"/><rect class="d" width="136" height="49" rx="4" transform="translate(1064 674)"/><path class="e" d="M0,0H156a0,0,0,0,1,0,0V13a16,16,0,0,1-16,16H16A16,16,0,0,1,0,13V0A0,0,0,0,1,0,0Z" transform="translate(1054 731)"/><rect class="c" width="61" height="51" rx="4" transform="translate(1132 545)"/><path class="c" d="M4,0h6a0,0,0,0,1,0,0V51a0,0,0,0,1,0,0H4a4,4,0,0,1-4-4V4A4,4,0,0,1,4,0Z" transform="translate(1200 545)"/><rect class="f" width="54" height="5" rx="2.5" transform="translate(1064 531)"/><rect class="f" width="78" height="6" rx="3" transform="translate(1064 615)"/><rect class="g" width="47" height="7" rx="3.5" transform="translate(1071 634)"/><rect class="g" width="38" height="7" rx="3.5" transform="translate(1071 681)"/><rect class="h" width="116" height="4" rx="2" transform="translate(1071 647)"/><rect class="h" width="118" height="4" rx="2" transform="translate(1071 694)"/><rect class="h" width="115" height="4" rx="2" transform="translate(1071 706)"/><rect class="h" width="122" height="4" rx="2" transform="translate(1071 653)"/><rect class="h" width="122" height="4" rx="2" transform="translate(1071 700)"/><rect class="h" width="100" height="4" rx="2" transform="translate(1071 712)"/><rect class="h" width="90" height="4" rx="2" transform="translate(1071 659)"/><g class="i" transform="translate(1070.322 559.159)"><circle class="a" cx="3.445" cy="3.445" r="3.445" transform="translate(28.48 0)"/><path class="a" d="M800.854,473.256H772.068a1.713,1.713,0,0,1-1.653-1.766,1.843,1.843,0,0,1,.365-1.106l14.393-19.065a1.584,1.584,0,0,1,2.325-.267,1.672,1.672,0,0,1,.251.267l12.856,17.028,7.338-9.788a1.585,1.585,0,0,1,2.325-.276,1.7,1.7,0,0,1,.258.276l8.868,11.827a1.846,1.846,0,0,1-.259,2.481,1.588,1.588,0,0,1-1.033.387Z" transform="translate(-770.415 -448.584)"/></g><g class="i" transform="translate(1138.168 559.159)"><circle class="a" cx="3.445" cy="3.445" r="3.445" transform="translate(28.48 0)"/><path class="a" d="M800.854,473.256H772.068a1.713,1.713,0,0,1-1.653-1.766,1.843,1.843,0,0,1,.365-1.106l14.393-19.065a1.584,1.584,0,0,1,2.325-.267,1.672,1.672,0,0,1,.251.267l12.856,17.028,7.338-9.788a1.585,1.585,0,0,1,2.325-.276,1.7,1.7,0,0,1,.258.276l8.868,11.827a1.846,1.846,0,0,1-.259,2.481,1.588,1.588,0,0,1-1.033.387Z" transform="translate(-770.415 -448.584)"/></g></g><path class="j" d="M-2224,745l54,54h108.25l54-54" transform="translate(3178 -4)"/><circle class="a" cx="5" cy="5" r="5" transform="translate(1165 736)"/><rect width="170" height="325" rx="20" transform="translate(867 438)"/><path class="a" d="M140,312H16A16,16,0,0,1,0,296V16A16,16,0,0,1,16,0H45.263a4,4,0,0,1,4,4V6.2a4,4,0,0,0,4,4h49.474a4,4,0,0,0,4-4V4a4,4,0,0,1,4-4H140a16,16,0,0,1,16,16V296a16,16,0,0,1-16,16Z" transform="translate(874 444)"/><g class="k" transform="translate(936 446)"><rect class="a" width="26" height="4" rx="2" transform="translate(0 0)"/><circle class="a" cx="2" cy="2" r="2" transform="translate(30 0)"/></g><rect class="l" width="136" height="15" rx="4" transform="translate(884 472)"/><rect class="l" width="84" height="14" rx="4" transform="translate(884 493)"/><rect class="e" width="62" height="51" rx="4" transform="translate(884 541)"/><rect class="e" width="136" height="41" rx="4" transform="translate(884 624)"/><rect class="e" width="136" height="49" rx="4" transform="translate(884 670)"/><path class="e" d="M0,0H156V13a16,16,0,0,1-16,16H16A16,16,0,0,1,0,13Z" transform="translate(874 727)"/><rect class="e" width="61" height="51" rx="4" transform="translate(952 541)"/><path class="e" d="M4,0h6a0,0,0,0,1,0,0V51a0,0,0,0,1,0,0H4a4,4,0,0,1-4-4V4A4,4,0,0,1,4,0Z" transform="translate(1020 541)"/><rect class="e" width="54" height="5" rx="2.5" transform="translate(884 527)"/><rect class="e" width="78" height="6" rx="3" transform="translate(884 611)"/><rect class="a" width="47" height="7" rx="3.5" transform="translate(891 630)"/><rect class="a" width="38" height="7" rx="3.5" transform="translate(891 677)"/><rect class="a" width="116" height="4" rx="2" transform="translate(891 643)"/><rect class="a" width="118" height="4" rx="2" transform="translate(891 690)"/><rect class="a" width="115" height="4" rx="2" transform="translate(891 702)"/><rect class="a" width="122" height="4" rx="2" transform="translate(891 649)"/><rect class="a" width="122" height="4" rx="2" transform="translate(891 696)"/><rect class="a" width="100" height="4" rx="2" transform="translate(891 708)"/><rect class="a" width="90" height="4" rx="2" transform="translate(891 655)"/><path class="j" d="M-2270,745l54,54h120.25l54-54" transform="translate(2994 -4)"/><circle class="a" cx="5" cy="5" r="5" transform="translate(947 736)"/><circle class="a" cx="5" cy="5" r="5" transform="translate(1089 736)"/><path class="j" d="M-1900,745l-37.356,37.356h-238.477l-31.546-31.546" transform="translate(2994 -4)"/><g transform="translate(0 -4)"><path class="a" d="M16,0H140a16,16,0,0,1,16,16V296a16,16,0,0,1-16,16H16A16,16,0,0,1,0,296V16A16,16,0,0,1,16,0Z" transform="translate(694 448)"/><g class="m" transform="translate(704 476)"><rect class="o" width="136" height="15"/><rect class="p" x="0.5" y="0.5" width="135" height="14"/></g><g class="m" transform="translate(704 497)"><rect class="o" width="84" height="14"/><rect class="p" x="0.5" y="0.5" width="83" height="13"/></g><g class="m" transform="translate(704 545)"><rect class="o" width="62" height="51"/><rect class="p" x="0.5" y="0.5" width="61" height="50"/></g><g class="m" transform="translate(704 628)"><rect class="o" width="136" height="41"/><rect class="p" x="0.5" y="0.5" width="135" height="40"/></g><g class="m" transform="translate(704 674)"><rect class="o" width="136" height="49"/><rect class="p" x="0.5" y="0.5" width="135" height="48"/></g><g class="n" transform="translate(694 731)"><path class="o" d="M0,0H156a0,0,0,0,1,0,0V13a16,16,0,0,1-16,16H16A16,16,0,0,1,0,13V0A0,0,0,0,1,0,0Z"/><path class="p" d="M1,.5H155a.5.5,0,0,1,.5.5V13A15.5,15.5,0,0,1,140,28.5H16A15.5,15.5,0,0,1,.5,13V1A.5.5,0,0,1,1,.5Z"/></g><g class="m" transform="translate(772 545)"><rect class="o" width="61" height="51"/><rect class="p" x="0.5" y="0.5" width="60" height="50"/></g><g class="m" transform="translate(840 545)"><rect class="o" width="10" height="51"/><rect class="p" x="0.5" y="0.5" width="9" height="50"/></g><g class="m" transform="translate(704 531)"><rect class="o" width="54" height="5"/><rect class="p" x="0.5" y="0.5" width="53" height="4"/></g><g class="m" transform="translate(704 615)"><rect class="o" width="78" height="6"/><rect class="p" x="0.5" y="0.5" width="77" height="5"/></g></g></g></svg>