<svg xmlns="http://www.w3.org/2000/svg" xmlns:xlink="http://www.w3.org/1999/xlink" width="520.187" height="375.051" viewBox="0 0 520.187 375.051"><defs><style>.a{fill:#fff;}.b{clip-path:url(#a);}.c{opacity:0.2;}.d,.f,.h{fill:none;}.d{stroke:#05172b;stroke-dasharray:5;}.e,.g{opacity:0.4;}.e{fill:url(#b);}.f{stroke:#8655e9;}.f,.h{stroke-linecap:round;stroke-width:2px;}.g{fill:url(#c);}.h{stroke:#1dcef2;}.i{fill:#8655e9;}.j{fill:#082847;}.k{fill:#1dcef2;}.l{fill:rgba(255,255,255,0.4);}.m{filter:url(#d);}</style><clipPath id="a"><rect class="a" width="385" height="248" rx="8" transform="translate(0.462 0.461)"/></clipPath><linearGradient id="b" x1="0.5" x2="0.5" y2="1" gradientUnits="objectBoundingBox"><stop offset="0" stop-color="#8655e9"/><stop offset="1" stop-color="#8655e9" stop-opacity="0"/></linearGradient><linearGradient id="c" x1="0.5" x2="0.5" y2="1" gradientUnits="objectBoundingBox"><stop offset="0" stop-color="#1dcef2"/><stop offset="1" stop-color="#1dcef2" stop-opacity="0"/></linearGradient><filter id="d" x="276.224" y="97" width="226.99" height="278.051" filterUnits="userSpaceOnUse"><feOffset input="SourceAlpha"/><feGaussianBlur stdDeviation="10" result="e"/><feFlood flood-opacity="0.2"/><feComposite operator="in" in2="e"/><feComposite in="SourceGraphic"/></filter></defs><g transform="translate(-1049 -3455)"><rect width="409" height="272" rx="10" transform="translate(1049 3455)"/><g class="b" transform="translate(1060.538 3466.539)"><g transform="translate(-27.9 -21.829)"><path class="a" d="M.927,0H439.374a.928.928,0,0,1,.927.929V247.674a.928.928,0,0,1-.927.929H.927A.928.928,0,0,1,0,247.674V.929A.928.928,0,0,1,.927,0Z" transform="translate(16.393 21.643)"/><g class="c" transform="translate(51.399 22.553)"><path class="d" d="M-13989.157,4082v247.237" transform="translate(14024.163 -4082)"/><path class="d" d="M-13989.157,4082v247.237" transform="translate(13989.157 -4082)"/><path class="d" d="M-13989.157,4082v247.237" transform="translate(14284.259 -4082)"/><path class="d" d="M-13989.157,4082v247.237" transform="translate(14174.223 -4082)"/><path class="d" d="M-13989.157,4082v247.237" transform="translate(14064.187 -4082)"/><path class="d" d="M-13989.157,4082v247.237" transform="translate(14359.288 -4082)"/><path class="d" d="M-13989.157,4082v247.237" transform="translate(14247.58 -4082)"/><path class="d" d="M-13989.157,4082v247.237" transform="translate(14137.545 -4082)"/><path class="d" d="M-13989.157,4082v247.237" transform="translate(14324.281 -4082)"/><path class="d" d="M-13989.157,4082v247.237" transform="translate(14210.901 -4082)"/><path class="d" d="M-13989.157,4082v247.237" transform="translate(14100.865 -4082)"/></g><path class="e" d="M-14713,4366.584l35.023-25.273,35.147-59.383,34.64,12.964,35.439-29.61,34.8-57.939,35.12,5.762,34.642,17.125,35.281-35.051,34.8-6.082,35.278-23.208,34.8-4.962,35.6-41.772,34.507-22.156v269.584Z" transform="translate(14714.458 -4097)"/><path class="f" d="M-14715.5,4367.79l36.484-26.479,35.147-59.383,34.64,12.964,35.44-29.61,34.8-57.939,35.119,5.762,34.642,17.125,35.281-35.051,34.8-6.082,35.278-23.208,34.8-4.962,35.6-41.772,34.507-22.156" transform="translate(14715.501 -4097)"/><path class="g" d="M-14653,4408.049l35.207-49.506,34.851-40.141,35.117-69.436,34.853,29.564,34.852-13.019,35.391-16.545,35.121,5.154,35.12,11.392,35.392-23.325,34.851-18.174,34.85-22.51,35.053-6.5v213.049Z" transform="translate(14688.88 -4137.676)"/><path class="h" d="M-14653.624,4409.064l35.522-51.176,34.8-40.033,35.072-69.245,34.8,29.484,34.8-12.984,35.34-16.5,35.073,5.14,35.074,11.36,35.342-23.262,34.8-18.122,34.8-22.452,36.283-6.773" transform="translate(14689.142 -4137.468)"/></g></g><g transform="translate(1058.845 3478.529)"><g class="m" transform="matrix(1, 0, 0, 1, -9.85, -23.53)"><path class="a" d="M447.89,128.524l-68.016-25.053L312.52,128.186c-8.6,4.166-16.141,6.661-16.141,14.876V183.97a157.6,157.6,0,0,0,22.188,81.415c12.564,20.915,32.019,42.45,61.969,56.137,27.531-9.173,48.082-33.626,60.646-54.541a157.6,157.6,0,0,0,22.187-81.415V148.78C463.369,137.063,457.316,131.342,447.89,128.524Z" transform="translate(9.85 23.53)"/></g><path class="i" d="M485.97,325.571s.3-.421.909-1.221l.512-.673c.172-.26.328-.566.516-.888a13.784,13.784,0,0,0,1.155-2.309c.18-.456.394-.929.576-1.445q.219-.792.46-1.666a11.8,11.8,0,0,0,.384-1.855,19.725,19.725,0,0,0,.283-2.045,38.612,38.612,0,0,0-.452-9.856c-1.138-7.372-4.264-16.055-9.051-25.491a199.128,199.128,0,0,0-19.439-30.231,309.426,309.426,0,0,0-28.987-32.56,354.672,354.672,0,0,0-38.055-32.482c-7.1-5.22-14.6-10.285-22.5-15.055a217.217,217.217,0,0,0-24.987-13.1c-8.777-3.815-18.036-7.14-27.8-8.715a49.182,49.182,0,0,0-14.825-.364,27.8,27.8,0,0,0-7.162,2.073A17.852,17.852,0,0,0,287.8,158.55a27.774,27.774,0,0,0-1.251,7.353A49,49,0,0,0,288.6,180.6c2.674,9.527,7.032,18.351,11.821,26.639a217.309,217.309,0,0,0,15.863,23.339c5.638,7.306,11.524,14.175,17.52,20.64a354.528,354.528,0,0,0,36.606,34.115,309.471,309.471,0,0,0,35.648,25.093A199.042,199.042,0,0,0,438.3,326.3c9.92,3.681,18.9,5.8,26.354,6.09a38.64,38.64,0,0,0,9.842-.673,19.682,19.682,0,0,0,2-.515,11.654,11.654,0,0,0,1.8-.593l1.6-.645c.491-.24.937-.508,1.369-.738a13.833,13.833,0,0,0,2.163-1.41c.3-.224.584-.412.823-.614l.61-.584c.726-.7,1.11-1.043,1.11-1.043s-.354.374-1.07,1.085l-.6.6c-.235.206-.521.4-.817.627a13.677,13.677,0,0,1-2.159,1.442c-.432.236-.879.509-1.371.755l-1.607.663a11.752,11.752,0,0,1-1.807.609,19.62,19.62,0,0,1-2.007.531,38.6,38.6,0,0,1-9.889.731c-7.488-.258-16.5-2.351-26.457-6.012a198.443,198.443,0,0,1-32.344-15.823A308.44,308.44,0,0,1,370.1,285.708a353.988,353.988,0,0,1-36.7-34.125c-6.01-6.471-11.912-13.348-17.567-20.667a217.283,217.283,0,0,1-15.915-23.392c-4.808-8.314-9.188-17.168-11.886-26.771a49.566,49.566,0,0,1-2.066-14.87,28.337,28.337,0,0,1,1.28-7.518,18.438,18.438,0,0,1,10.013-11.207,28.42,28.42,0,0,1,7.323-2.123,49.7,49.7,0,0,1,15,.369c9.843,1.59,19.137,4.934,27.942,8.764a217.46,217.46,0,0,1,25.045,13.148c7.913,4.786,15.415,9.865,22.527,15.1a353.835,353.835,0,0,1,38.076,32.57,308.371,308.371,0,0,1,28.974,32.655,198.362,198.362,0,0,1,19.4,30.333c4.77,9.472,7.875,18.193,8.985,25.6a38.6,38.6,0,0,1,.4,9.909,19.5,19.5,0,0,1-.3,2.054,11.779,11.779,0,0,1-.4,1.865l-.475,1.672c-.189.517-.409.992-.594,1.448a13.594,13.594,0,0,1-1.187,2.309c-.193.32-.353.626-.53.883l-.526.667C486.3,325.176,485.97,325.571,485.97,325.571Z" transform="translate(-11.598 -9.821)"/><path class="i" d="M524.714,233.65s-.056-.515-.135-1.517c-.02-.252-.042-.533-.066-.843-.044-.309-.133-.642-.206-1.006a13.712,13.712,0,0,0-.675-2.492c-.169-.46-.324-.956-.531-1.462q-.364-.737-.766-1.55a11.6,11.6,0,0,0-.948-1.641,19.688,19.688,0,0,0-1.149-1.715,38.585,38.585,0,0,0-6.9-7.054c-5.757-4.744-13.869-9.142-23.723-13a199.074,199.074,0,0,0-34.63-9.618,309.3,309.3,0,0,0-43.305-5,354.5,354.5,0,0,0-50.021,1.091c-8.776.833-17.739,2.042-26.809,3.74a217.227,217.227,0,0,0-27.368,6.856c-9.088,2.995-18.211,6.678-26.548,12a49.159,49.159,0,0,0-11.306,9.6,27.751,27.751,0,0,0-3.964,6.315,17.848,17.848,0,0,0-.011,14.568,27.774,27.774,0,0,0,3.961,6.321,49.034,49.034,0,0,0,11.305,9.6c8.339,5.329,17.464,9.013,26.554,12.01a217.118,217.118,0,0,0,27.373,6.859c9.072,1.7,18.037,2.908,26.814,3.741a354.587,354.587,0,0,0,50.027,1.091,309.311,309.311,0,0,0,43.307-5,199.052,199.052,0,0,0,34.629-9.62c9.852-3.856,17.964-8.254,23.72-13a38.651,38.651,0,0,0,6.9-7.054,19.925,19.925,0,0,0,1.148-1.714,11.847,11.847,0,0,0,.948-1.641l.766-1.55c.207-.506.362-1,.53-1.462a13.727,13.727,0,0,0,.675-2.491c.073-.365.162-.7.206-1.006.025-.31.046-.591.066-.843.079-1,.135-1.517.135-1.517s-.016.515-.075,1.521q-.024.379-.052.848c-.039.31-.124.645-.192,1.011a13.626,13.626,0,0,1-.651,2.514c-.165.463-.318.965-.521,1.475l-.758,1.564a11.771,11.771,0,0,1-.942,1.659,19.81,19.81,0,0,1-1.144,1.732,38.614,38.614,0,0,1-6.894,7.128c-5.76,4.791-13.88,9.232-23.745,13.126a198.366,198.366,0,0,1-34.67,9.722,308.494,308.494,0,0,1-43.36,5.082,353.983,353.983,0,0,1-50.1-1.039c-8.793-.827-17.774-2.032-26.865-3.728a217.272,217.272,0,0,1-27.448-6.863c-9.123-3-18.285-6.7-26.691-12.066a49.618,49.618,0,0,1-11.441-9.721,28.388,28.388,0,0,1-4.049-6.463,18.433,18.433,0,0,1,.011-15.029,28.38,28.38,0,0,1,4.052-6.458,49.716,49.716,0,0,1,11.442-9.713c8.4-5.365,17.565-9.057,26.686-12.059a217.366,217.366,0,0,1,27.443-6.861c9.09-1.7,18.069-2.9,26.861-3.727a353.9,353.9,0,0,1,50.1-1.039,308.524,308.524,0,0,1,43.359,5.081,198.512,198.512,0,0,1,34.671,9.721c9.866,3.893,17.987,8.334,23.748,13.126a38.578,38.578,0,0,1,6.894,7.128,19.578,19.578,0,0,1,1.145,1.733,11.883,11.883,0,0,1,.943,1.657l.758,1.565c.2.51.355,1.011.52,1.475a13.654,13.654,0,0,1,.652,2.514c.069.367.153.7.192,1.012q.029.469.052.847C524.7,233.135,524.714,233.65,524.714,233.65Z" transform="translate(-14.372 -4.725)"/><path class="i" d="M472.1,132.658s-.442-.272-1.282-.823l-.707-.465c-.27-.154-.588-.288-.92-.453a13.684,13.684,0,0,0-2.384-.993c-.466-.148-.954-.33-1.48-.476l-1.694-.343a11.75,11.75,0,0,0-1.878-.256,19.628,19.628,0,0,0-2.059-.142,38.6,38.6,0,0,0-9.8,1.129c-7.276,1.644-15.722,5.36-24.807,10.786A199.06,199.06,0,0,0,396.271,162.1a309.414,309.414,0,0,0-30.486,31.161A354.429,354.429,0,0,0,336,233.46c-4.718,7.446-9.254,15.27-13.469,23.479a217.081,217.081,0,0,0-11.349,25.83c-3.2,9.018-5.88,18.485-6.779,28.336a49.159,49.159,0,0,0,.657,14.816,27.8,27.8,0,0,0,2.562,7,17.847,17.847,0,0,0,11.507,8.934,27.83,27.83,0,0,0,7.422.742,49.042,49.042,0,0,0,14.518-3.051c9.321-3.324,17.823-8.279,25.761-13.628a217.256,217.256,0,0,0,22.191-17.432c6.9-6.129,13.349-12.474,19.385-18.9a354.653,354.653,0,0,0,31.513-38.869A309.481,309.481,0,0,0,462.5,213.428a199.133,199.133,0,0,0,13.613-33.262c2.989-10.149,4.482-19.255,4.26-26.71a38.655,38.655,0,0,0-1.349-9.772,19.883,19.883,0,0,0-.651-1.957,11.771,11.771,0,0,0-.716-1.755l-.755-1.555c-.273-.473-.57-.9-.83-1.315a13.794,13.794,0,0,0-1.555-2.061c-.244-.281-.452-.555-.669-.778l-.626-.569c-.744-.676-1.116-1.036-1.116-1.036s.4.327,1.156.992l.638.56c.221.22.435.492.682.772a13.677,13.677,0,0,1,1.588,2.054c.265.415.567.842.847,1.316l.772,1.557a11.8,11.8,0,0,1,.733,1.761,20.032,20.032,0,0,1,.669,1.965,38.6,38.6,0,0,1,1.41,9.815c.257,7.488-1.208,16.627-4.174,26.808a198.385,198.385,0,0,1-13.558,33.358A308.531,308.531,0,0,1,440.317,251a353.807,353.807,0,0,1-31.517,38.96c-6.041,6.442-12.495,12.8-19.407,18.949A217.511,217.511,0,0,1,367.152,326.4c-7.963,5.369-16.5,10.349-25.889,13.7a49.6,49.6,0,0,1-14.692,3.084,28.337,28.337,0,0,1-7.589-.76,18.429,18.429,0,0,1-11.87-9.216,28.339,28.339,0,0,1-2.621-7.159,49.671,49.671,0,0,1-.666-14.994c.909-9.93,3.6-19.431,6.819-28.479a217.218,217.218,0,0,1,11.392-25.892c4.228-8.223,8.778-16.058,13.511-23.513a353.772,353.772,0,0,1,29.871-40.228A308.3,308.3,0,0,1,396,161.787a198.305,198.305,0,0,1,28.925-21.446c9.122-5.411,17.606-9.109,24.924-10.727a38.586,38.586,0,0,1,9.858-1.081,19.77,19.77,0,0,1,2.071.156,11.744,11.744,0,0,1,1.888.272l1.7.358c.528.152,1.018.339,1.486.493a13.623,13.623,0,0,1,2.385,1.025c.333.171.648.309.918.469l.7.479C471.687,132.354,472.1,132.658,472.1,132.658Z" transform="translate(-9.42 -11.813)"/><circle class="i" cx="4.312" cy="4.312" r="4.312" transform="translate(255.155 275.039)"/><path class="i" d="M505.783,142.7a4.311,4.311,0,1,1-4.311-4.312A4.311,4.311,0,0,1,505.783,142.7Z"/><path class="i" d="M289.743,290.479a1.1,1.1,0,1,1-1.1-1.1A1.1,1.1,0,0,1,289.743,290.479Z"/><path class="i" d="M313.13,169.66a1.1,1.1,0,1,1-1.1-1.1A1.1,1.1,0,0,1,313.13,169.66Z"/><path class="i" d="M484.124,228.387a1.1,1.1,0,1,1-1.1-1.1A1.1,1.1,0,0,1,484.124,228.387Z"/><path class="i" d="M499.352,177.3a1.1,1.1,0,1,1-1.1-1.1A1.1,1.1,0,0,1,499.352,177.3Z"/><path class="j" d="M409.691,216.628H398.957V158.2a24.941,24.941,0,1,0-49.882,0v58.429H338.34V158.2a35.676,35.676,0,1,1,71.352,0Z" transform="translate(5.859 10.658)"/><rect class="k" width="96.157" height="61.691" rx="5.811" transform="translate(331.796 201.296)"/><path class="j" d="M386.591,227.057a8.037,8.037,0,1,0-10.229,7.7V246.77h4.385V234.753A8.013,8.013,0,0,0,386.591,227.057Z" transform="translate(1.32 -2.953)"/><path class="l" d="M329.8,259.287c-.221,0-.4-10.288-.4-22.976s.179-22.979.4-22.979.4,10.286.4,22.979S330.025,259.287,329.8,259.287Z" transform="translate(7.119 -2.151)"/><path class="l" d="M371.68,236.99c-.027.04-.377-.126-.943-.535a9.833,9.833,0,0,1-2.072-2.111,11.263,11.263,0,0,1,4-16.9,9.793,9.793,0,0,1,2.8-.958,2.478,2.478,0,0,1,1.081-.056,25.137,25.137,0,0,0-3.609,1.509,11.141,11.141,0,0,0-3.809,16.085A25.037,25.037,0,0,0,371.68,236.99Z" transform="translate(1.9 -2.583)"/></g></g></svg>