<svg xmlns="http://www.w3.org/2000/svg" width="516" height="355" viewBox="0 0 516 355"><defs><style>.a{opacity:0.3;}.b{fill:#05172b;}.c{fill:none;stroke:rgba(255,255,255,0.4);stroke-linecap:round;stroke-linejoin:round;}.d{fill:#fff;}.e{fill:#8655e9;}.f{fill:#e83535;}</style></defs><g transform="translate(-1049 -4000)"><g class="a" transform="translate(1372.189 4158.224)"><g transform="translate(0 30)"><path class="b" d="M80.5,30a25.954,25.954,0,0,0-16.209,5.6,36.924,36.924,0,0,0-9.483,11.4,36.921,36.921,0,0,0-9.483-11.4A25.954,25.954,0,0,0,29.118,30C12.518,30,0,43.578,0,61.584c0,19.452,15.618,32.761,39.26,52.909,4.015,3.422,8.566,7.3,13.3,11.436a3.427,3.427,0,0,0,4.51,0c4.73-4.137,9.281-8.015,13.3-11.439C94,94.345,109.622,81.036,109.622,61.584,109.622,43.578,97.1,30,80.5,30Z" transform="translate(0 -30)"/></g></g><g class="a" transform="translate(1109 3980.959)"><g transform="translate(0 30)"><path class="b" d="M33.343,30a10.75,10.75,0,0,0-6.714,2.321A15.293,15.293,0,0,0,22.7,37.044a15.292,15.292,0,0,0-3.928-4.724A10.75,10.75,0,0,0,12.06,30C5.185,30,0,35.624,0,43.081,0,51.138,6.468,56.65,16.261,65c1.663,1.417,3.548,3.023,5.507,4.737a1.419,1.419,0,0,0,1.868,0c1.959-1.713,3.844-3.32,5.508-4.738C38.935,56.65,45.4,51.138,45.4,43.081,45.4,35.624,40.218,30,33.343,30Z" transform="translate(0 -30)"/></g></g><path class="c" d="M-4247.473,4097.975V4074.6l-42.892-42.892" transform="translate(5501)"/><path class="c" d="M-4179.8,4097.975v-39.989l15.576-15.576h47.791" transform="translate(5501)"/><path class="c" d="M-4098.59,4122.583H-4018l60.67-60.67v-26.691" transform="translate(5499)"/><path class="c" d="M-4098.59,4161h113.815l26.944,26.944" transform="translate(5501)"/><path class="c" d="M-4098.59,4197.64h40.6l36.669,36.669v46.386" transform="translate(5501)"/><path class="c" d="M-4134.888,4210v43.01l-33.429,33.429v35.475" transform="translate(5501)"/><path class="c" d="M-4262.854,4208v39.473l-47.688,47.688h-101.195" transform="translate(5501)"/><path class="c" d="M-4284.694,4186.041h-55.333l-22.074-22.074" transform="translate(5501)"/><path class="c" d="M-4284.694,4134.712h-124.864l-18.136-18.136V4067" transform="translate(5500 -10)"/><g transform="translate(98.123 88.994)"><rect width="213" height="142" rx="5" transform="translate(1102.878 4001.006)"/><rect width="33" height="103" rx="10" transform="translate(1192.878 4074.006)"/><rect class="d" width="205" height="125" rx="2" transform="translate(1106.878 4006.006)"/><rect width="77" height="10" rx="3" transform="translate(1170.878 4167.006)"/></g><path class="e" d="M6.44-6.048V-7.126L.714-4.7V-3.64L6.44-1.26V-2.338L1.876-4.172Zm4.606-3.92a14.512,14.512,0,0,0-3.122.294l.07.98a24.013,24.013,0,0,1,2.758-.126c1.218,0,1.75.406,1.708,1.26-.042,1.47-2.3,2.03-2.24,4.578h1.148C11.466-5.376,13.9-5.7,13.9-7.8,13.9-9.282,12.95-9.968,11.046-9.968Zm-.42,8.232c-.378,0-.5.126-.5.49V-.5c0,.378.126.5.5.5h.336c.378,0,.5-.126.5-.5v-.742c0-.364-.126-.49-.5-.49Zm8.932-5.278a4.213,4.213,0,0,0-2.842,1.232l-.1-1.05H15.5V2.786h1.344V.868A11.461,11.461,0,0,0,16.8-.518a4.6,4.6,0,0,0,2.478.686c1.736,0,2.6-.9,2.6-3.542C21.882-5.712,21.21-7.014,19.558-7.014Zm-.644,6.006a8.5,8.5,0,0,1-2.072-.364V-4.844A3.863,3.863,0,0,1,19.1-5.838c.994,0,1.386.616,1.386,2.45C20.482-1.442,20.048-1.008,18.914-1.008ZM27.93-7.014a5.154,5.154,0,0,0-2.982,1.19,7.478,7.478,0,0,0,.1-1.33L25.032-9.8H23.674V0h1.358V-4.858a4.892,4.892,0,0,1,2.52-1.008c.644,0,.868.266.868,1.134V0h1.358V-5.124A1.681,1.681,0,0,0,27.93-7.014Zm7.966,0a4.213,4.213,0,0,0-2.842,1.232l-.1-1.05h-1.12V2.786H33.18V.868a11.461,11.461,0,0,0-.042-1.386,4.6,4.6,0,0,0,2.478.686c1.736,0,2.6-.9,2.6-3.542C38.22-5.712,37.548-7.014,35.9-7.014Zm-.644,6.006a8.5,8.5,0,0,1-2.072-.364V-4.844a3.863,3.863,0,0,1,2.254-.994c.994,0,1.386.616,1.386,2.45C36.82-1.442,36.386-1.008,35.252-1.008Z" transform="translate(1226 4119)"/><path class="b" d="M20.818-8.932,20.93-9.94a16.6,16.6,0,0,0-1.974-.1c-1.5,0-2.03.742-2.03,2.016v1.19l-1.232.07v.98h1.232V0h1.358V-5.782H20.4v-1.05H18.284V-7.868c0-.77.294-1.064,1.148-1.064Zm6.846,2.1H26.32V-1.89a4.453,4.453,0,0,1-2.268.91c-.728,0-.994-.28-.98-1.12V-6.832H21.714v5.124A1.673,1.673,0,0,0,23.576.182a4.86,4.86,0,0,0,2.912-1.12l.1.938h1.078Zm6.356-.182A5.163,5.163,0,0,0,31-5.8l-.084-1.036H29.764V0h1.358l-.014-4.844a5.187,5.187,0,0,1,2.534-1.022c.644,0,.868.266.868,1.134V0h1.358V-5.124A1.675,1.675,0,0,0,34.02-7.014Zm6.846,0c-2.38,0-3.262.952-3.262,3.6S38.472.168,40.866.168a7.251,7.251,0,0,0,2.38-.378l-.126-.91A13.172,13.172,0,0,1,41.1-.966c-1.554,0-2.086-.546-2.086-2.45s.532-2.45,2.086-2.45c.476,0,1.218.028,1.848.07l.182-.868A6.943,6.943,0,0,0,40.866-7.014ZM46.69-5.782H48.8v-1.05H46.69v-2H45.346v2l-1.246.07v.98h1.246v3.99c0,1.232.616,1.918,1.778,1.918a7.565,7.565,0,0,0,1.61-.182l-.154-1.05h-.994c-.658,0-.9-.224-.9-.868Zm3.948-3.962a.354.354,0,0,0-.392.392v.784c0,.266.126.406.392.406h.644c.266,0,.392-.14.392-.406v-.784a.354.354,0,0,0-.392-.392ZM51.632,0V-6.832H50.288V0Zm5.1-7.014c-2.38,0-3.262.994-3.262,3.612S54.348.182,56.728.182,59.99-.8,59.99-3.4,59.108-7.014,56.728-7.014Zm0,1.148c1.414,0,1.848.546,1.848,2.464,0,1.89-.434,2.45-1.848,2.45S54.88-1.512,54.88-3.4C54.88-5.32,55.314-5.866,56.728-5.866Zm9.3-1.148A5.163,5.163,0,0,0,63-5.8l-.084-1.036H61.768V0h1.358l-.014-4.844a5.187,5.187,0,0,1,2.534-1.022c.644,0,.868.266.868,1.134V0h1.358V-5.124A1.675,1.675,0,0,0,66.024-7.014Z" transform="translate(1226 4141)"/><path class="b" d="M35.28-.966c-1.316,0-1.9-.308-2.044-1.792H36.3c1.148,0,1.666-.728,1.666-1.96,0-1.5-.868-2.3-3-2.3-2.212,0-3.164.882-3.164,3.584,0,2.632.91,3.6,3.29,3.6a8.041,8.041,0,0,0,2.7-.406l-.126-.9A23.754,23.754,0,0,1,35.28-.966Zm-.238-4.9c1.162,0,1.554.322,1.568,1.148,0,.42-.1.91-.672.91h-2.73C33.264-5.432,33.712-5.866,35.042-5.866Zm7.574-1.148c-2.38,0-3.262.952-3.262,3.6S40.222.168,42.616.168A7.251,7.251,0,0,0,45-.21l-.126-.91a13.172,13.172,0,0,1-2.016.154c-1.554,0-2.086-.546-2.086-2.45s.532-2.45,2.086-2.45c.476,0,1.218.028,1.848.07l.182-.868A6.943,6.943,0,0,0,42.616-7.014Zm8.19,0a5.154,5.154,0,0,0-2.982,1.19,7.478,7.478,0,0,0,.1-1.33L47.908-9.8H46.55V0h1.358V-4.858a4.892,4.892,0,0,1,2.52-1.008c.644,0,.868.266.868,1.134V0h1.358V-5.124A1.681,1.681,0,0,0,50.806-7.014Zm6.846,0c-2.38,0-3.262.994-3.262,3.612S55.272.182,57.652.182,60.914-.8,60.914-3.4,60.032-7.014,57.652-7.014Zm0,1.148c1.414,0,1.848.546,1.848,2.464,0,1.89-.434,2.45-1.848,2.45S55.8-1.512,55.8-3.4C55.8-5.32,56.238-5.866,57.652-5.866Zm8.876-.77.084-3.024H65.52L65.6-6.636Zm2.058,0L68.67-9.66H67.578l.084,3.024Z" transform="translate(1226 4163)"/><path class="b" d="M13.034-9.9c.952,0,1.218.308,1.218,1.134v2.422c-.014,1.162.266,1.554,1.288,1.75-1.05.322-1.33.714-1.344,1.694V.336c0,.826-.266,1.12-1.218,1.12V2.31c1.806.154,2.52-.56,2.52-1.876V-3.108c0-.714.252-.77.854-1.008v-.952c-.658-.21-.8-.21-.8-1.064V-8.876c0-1.316-.714-2.03-2.52-1.876Z" transform="translate(1226 4185)"/><path class="b" d="M3.654-9.968a14.512,14.512,0,0,0-3.122.294l.07.98A24.013,24.013,0,0,1,3.36-8.82c1.218,0,1.75.406,1.708,1.26-.042,1.47-2.3,2.03-2.24,4.578H3.976C4.074-5.376,6.51-5.7,6.51-7.8,6.51-9.282,5.558-9.968,3.654-9.968Zm-.42,8.232c-.378,0-.5.126-.5.49V-.5c0,.378.126.5.5.5H3.57c.378,0,.5-.126.5-.5v-.742c0-.364-.126-.49-.5-.49ZM13.734-4.7,8.008-7.126v1.078l4.564,1.876L8.008-2.338V-1.26l5.726-2.38Z" transform="translate(1226 4205)"/><circle class="d" cx="23.5" cy="23.5" r="23.5" transform="translate(1181 4000)"/><circle class="d" cx="23.5" cy="23.5" r="23.5" transform="translate(1518 4000)"/><circle class="d" cx="23.5" cy="23.5" r="23.5" transform="translate(1370 4019)"/><circle class="d" cx="23.5" cy="23.5" r="23.5" transform="translate(1518 4161)"/><circle class="d" cx="23.5" cy="23.5" r="23.5" transform="translate(1049 4272)"/><circle class="d" cx="23.5" cy="23.5" r="23.5" transform="translate(1309 4308)"/><circle class="d" cx="23.5" cy="23.5" r="23.5" transform="translate(1456 4272)"/><circle class="d" cx="23.5" cy="23.5" r="23.5" transform="translate(1049 4039)"/><circle class="d" cx="23.5" cy="23.5" r="23.5" transform="translate(1115 4140)"/><path class="e" d="M3.374-7.014c-1.9-.014-2.7.35-2.7,1.9A1.737,1.737,0,0,0,2.226-3.164l1.9.476c.644.168,1.036.238,1.036.868,0,.7-.434.84-1.932.84C2.352-.98,1.526-.994.9-1.05L.8-.042a18.374,18.374,0,0,0,2.716.2C5.558.154,6.482-.14,6.482-1.82c0-1.19-.49-1.624-1.6-1.918L2.954-4.214c-.644-.182-.966-.238-.966-.9,0-.742.378-.756,1.6-.756.854,0,1.736.042,2.59.07l.112-.98A21.886,21.886,0,0,0,3.374-7.014Zm9.058,0A5.154,5.154,0,0,0,9.45-5.824a7.478,7.478,0,0,0,.1-1.33L9.534-9.8H8.176V0H9.534V-4.858a4.892,4.892,0,0,1,2.52-1.008c.644,0,.868.266.868,1.134V0H14.28V-5.124A1.681,1.681,0,0,0,12.432-7.014Zm6.846,0c-2.38,0-3.262.994-3.262,3.612S16.9.182,19.278.182,22.54-.8,22.54-3.4,21.658-7.014,19.278-7.014Zm0,1.148c1.414,0,1.848.546,1.848,2.464,0,1.89-.434,2.45-1.848,2.45S17.43-1.512,17.43-3.4C17.43-5.32,17.864-5.866,19.278-5.866Zm15.19-.966h-1.4L31.752-1.9a9.288,9.288,0,0,0-.21,1.05H31.36c-.084-.364-.168-.7-.238-1.05L30.128-6.4a.509.509,0,0,0-.5-.434H28.406a.5.5,0,0,0-.5.42L26.894-1.9c-.07.35-.154.7-.238,1.05h-.182a9.288,9.288,0,0,0-.21-1.05L24.948-6.832h-1.4L25.48-.378a.487.487,0,0,0,.5.378h1.2a.527.527,0,0,0,.532-.434l.98-4.494c.07-.364.154-.728.224-1.092h.168c.084.364.14.728.21,1.092L30.3-.434A.523.523,0,0,0,30.814,0h1.218a.5.5,0,0,0,.518-.378Zm7.42,7.854V0H35.756V1.022ZM45.276-9.8H43.918v8.134A1.61,1.61,0,0,0,45.64.126a4.306,4.306,0,0,0,1.3-.182l-.154-1.05h-.63a.785.785,0,0,1-.9-.868Zm5.8,2.786c-2.38,0-3.262.994-3.262,3.612S48.692.182,51.072.182,54.334-.8,54.334-3.4,53.452-7.014,51.072-7.014Zm0,1.148c1.414,0,1.848.546,1.848,2.464,0,1.89-.434,2.45-1.848,2.45s-1.848-.56-1.848-2.45C49.224-5.32,49.658-5.866,51.072-5.866Zm11.144-.966H60.774l-1.582,4.7c-.14.378-.266.784-.406,1.176H58.6c-.126-.392-.252-.8-.378-1.176l-1.6-4.7H55.188l2.436,6.5A.479.479,0,0,0,58.086,0H59.3a.5.5,0,0,0,.476-.336ZM66.542-.966c-1.316,0-1.9-.308-2.044-1.792h3.066c1.148,0,1.666-.728,1.666-1.96,0-1.5-.868-2.3-3-2.3-2.212,0-3.164.882-3.164,3.584,0,2.632.91,3.6,3.29,3.6a8.041,8.041,0,0,0,2.7-.406l-.126-.9A23.754,23.754,0,0,1,66.542-.966Zm-.238-4.9c1.162,0,1.554.322,1.568,1.148,0,.42-.1.91-.672.91H64.47C64.526-5.432,64.974-5.866,66.3-5.866Z" transform="translate(1298 4141)"/><path class="b" d="M-16.352-11.06c-2.59.952-3.752,3.052-3.752,6.692,0,3.612,1.162,5.712,3.752,6.678l.168-.63c-1.834-.938-2.6-2.968-2.6-6.062,0-3.15.77-5.166,2.6-6.048Zm.98.63c1.834.882,2.6,2.9,2.6,6.048,0,3.094-.77,5.124-2.6,6.062l.168.63c2.59-.966,3.766-3.066,3.766-6.678,0-3.64-1.176-5.74-3.766-6.692Zm14.784-.322c-1.792-.154-2.52.56-2.52,1.876v2.744c0,.854-.14.854-.8,1.064v.952c.616.238.854.294.854,1.008V.434c0,1.316.728,2.03,2.52,1.876V1.456c-.952,0-1.218-.294-1.218-1.12V-2.9c-.014-.98-.294-1.372-1.344-1.694,1.022-.2,1.3-.588,1.288-1.75V-8.764c0-.826.266-1.134,1.218-1.134Z" transform="translate(1389 4141)"/><path class="f" d="M2.548-9.66h-1.4v7.784c0,1.092.518,1.9,2.058,1.9C4.452.028,5.726.014,6.93-.1L6.86-1.176H3.43c-.644,0-.882-.238-.882-.9Zm9.142-.182c-2.842,0-3.85,1.218-3.85,5.012S8.848.182,11.69.182s3.864-1.218,3.864-5.012S14.546-9.842,11.69-9.842Zm0,1.246c1.82,0,2.394.91,2.394,3.766S13.51-1.064,11.69-1.064,9.31-1.974,9.31-4.83,9.884-8.6,11.69-8.6ZM24.64-9.66H23.2l-2.17,7.518c-.1.35-.2.714-.266,1.064h-.378c-.084-.35-.168-.714-.266-1.064L17.934-9.66H16.492L19.348-.392A.559.559,0,0,0,19.88,0h1.372a.559.559,0,0,0,.532-.392Zm7.322,8.5H28.126c-.56,0-.77-.238-.77-.9V-4.522H31.43V-5.656H27.356V-7.588c0-.658.21-.9.77-.9h3.836l.07-1.092c-1.274-.112-2.758-.112-4.144-.112a1.731,1.731,0,0,0-1.946,1.736v6.244A1.724,1.724,0,0,0,27.888.028c1.386,0,2.87,0,4.144-.112Z" transform="translate(1296 4163)"/><path class="b" d="M-6.468-6.636l.084-3.024H-7.476l.084,3.024Zm2.058,0,.084-3.024H-5.418l.084,3.024Zm2.506.448c-.378,0-.5.126-.5.49v.756c0,.364.126.49.5.49h.434c.378,0,.5-.126.5-.49V-5.7c0-.364-.126-.49-.5-.49Zm.028,4.452c-.364,0-.5.126-.518.49l-.014.812c0,.266.14.434.378.434a9.269,9.269,0,0,1-.14,1.708l.63.168A4.883,4.883,0,0,0-1.008-.35v-.9c0-.364-.112-.49-.476-.49Z" transform="translate(1337 4163)"/></g></svg>