<svg xmlns="http://www.w3.org/2000/svg" xmlns:xlink="http://www.w3.org/1999/xlink" width="77" height="60" viewBox="0 0 77 60"><defs><style>.a{fill:url(#a);}.b{fill:url(#b);}.c{fill:url(#c);}.d{fill:url(#d);}.e{fill:url(#e);}.f{fill:url(#f);}</style><linearGradient id="a" x1="0.981" y1="-0.383" x2="-0.532" y2="0.405" gradientUnits="objectBoundingBox"><stop offset="0" stop-color="#8655e9"/><stop offset="1" stop-color="#1dcef2"/></linearGradient><linearGradient id="b" x1="0.081" y1="4.612" x2="1.109" y2="3.712" gradientUnits="objectBoundingBox"><stop offset="0" stop-color="#1dcef2"/><stop offset="1" stop-color="#8655e9"/></linearGradient><linearGradient id="c" x1="0.179" y1="0" x2="0.685" y2="1.305" xlink:href="#b"/><linearGradient id="d" x1="0.22" y1="-0.689" x2="0.789" y2="1.113" xlink:href="#b"/><linearGradient id="e" x1="-0.154" y1="-0.888" x2="1" y2="1" xlink:href="#b"/><linearGradient id="f" x1="0.179" y1="1" x2="1" y2="0.86" xlink:href="#b"/></defs><g transform="translate(-321 -682)"><path class="a" d="M0,161.615l38.5,44,38.5-44Z" transform="translate(321 536.385)"/><path class="b" d="M67.2,50.146H9.8l-9.8,16H77Z" transform="translate(321 631.854)"/><g transform="translate(321 682)"><path class="c" d="M175.458,75.163l-13.9,15.973h27.8Z" transform="translate(-136.958 -75.163)"/><path class="d" d="M9.8,75.179,24.6,91.136H0Z" transform="translate(0 -75.163)"/><path class="e" d="M365.246,75.163l-14.8,15.973h24.6Z" transform="translate(-298.042 -75.163)"/><path class="f" d="M175.458,119.124l-13.9-43.961h27.8Z" transform="translate(-136.958 -59.19)"/></g></g></svg>