<svg xmlns="http://www.w3.org/2000/svg" xmlns:xlink="http://www.w3.org/1999/xlink" width="576" height="415" viewBox="0 0 576 415"><defs><style>.a{fill:#f0db4f;}.aa,.b,.w{opacity:0.4;}.ab,.c,.e{fill:none;}.c{stroke:#1dcef2;}.ad,.d,.g,.w,.y{fill:#082847;}.d,.v{opacity:0.3;}.ab,.e{stroke:#fff;stroke-linecap:round;}.f{fill:#05172b;}.h{fill:url(#c);}.i{fill:url(#d);}.j{fill:url(#e);}.k{fill:#0e2946;}.l{fill:#8655e9;}.m{fill:#f46544;}.n{fill:#e83535;}.o{fill:#1dcef2;}.p{fill:#f1fdff;}.q{fill:#020e1c;}.r{fill:rgba(255,255,255,0.4);}.s{fill:#7ae8ff;}.t{fill:#a4c0db;}.aa,.at,.u,.z{fill:#fff;}.x{fill:#ebebeb;}.y{opacity:0.2;}.z{opacity:0.8;}.ab{stroke-linejoin:round;stroke-width:2px;}.ac{fill:#f0f0f0;}.ad{opacity:0.6;}.ae{fill:#f6eeee;}.af{fill:#6a7e90;}.ag{clip-path:url(#q);}.ah{fill:#f7df1e;}.ai{fill:#231f20;}.aj{fill:#367faf;}.ak{fill:#417ba2;}.al,.am,.an,.ao,.ap,.aq,.ar,.as,.at,.au{fill-rule:evenodd;}.al{fill:url(#v);}.am{fill:url(#w);}.an{fill:url(#x);}.ao{fill:url(#y);}.ap{fill:url(#z);}.aq{fill:url(#aa);}.ar{fill:url(#ab);}.as{fill:rgba(51,10,76,0.32);}.au{fill:rgba(237,237,237,0.6);}.av{fill:#333;}.aw{fill:url(#ac);}.ax{fill:url(#ad);}.ay{fill:url(#ae);}.az{fill:url(#af);}.ba{fill:url(#ag);}.bb{fill:url(#ah);}.bc{fill:url(#ai);}.bd{fill:url(#aj);}.be{fill:url(#ak);}.bf{fill:url(#al);}.bg{fill:url(#am);}.bh{fill:url(#an);}.bi{fill:#9e1209;}.bj{fill:url(#ao);}.bk{fill:url(#ap);}.bl{fill:url(#aq);}.bm{fill:url(#ar);}.bn{fill:#ef0e13;font-size:8px;font-family:ArialMT, Arial;}.bo{filter:url(#t);}.bp{filter:url(#r);}.bq{filter:url(#o);}.br{filter:url(#m);}.bs{filter:url(#k);}.bt{filter:url(#i);}.bu{filter:url(#g);}.bv{filter:url(#a);}</style><filter id="a" x="103" y="91" width="370" height="254" filterUnits="userSpaceOnUse"><feOffset input="SourceAlpha"/><feGaussianBlur stdDeviation="10" result="b"/><feFlood flood-color="#1dcef2" flood-opacity="0.2"/><feComposite operator="in" in2="b"/><feComposite in="SourceGraphic"/></filter><linearGradient id="c" y1="1.094" x2="1.141" y2="-0.144" gradientUnits="objectBoundingBox"><stop offset="0" stop-color="#8655e9"/><stop offset="1" stop-color="#1dcef2"/></linearGradient><linearGradient id="d" x1="0" y1="-0.094" x2="1.141" y2="1.144" xlink:href="#c"/><linearGradient id="e" x1="0.106" y1="0.341" x2="0.796" y2="1.409" xlink:href="#c"/><filter id="g" x="406.042" y="154.5" width="95.458" height="102" filterUnits="userSpaceOnUse"><feOffset input="SourceAlpha"/><feGaussianBlur stdDeviation="2.5" result="h"/><feFlood flood-color="#1dcef2" flood-opacity="0.302"/><feComposite operator="in" in2="h"/><feComposite in="SourceGraphic"/></filter><filter id="i" x="409" y="43" width="167" height="151" filterUnits="userSpaceOnUse"><feOffset input="SourceAlpha"/><feGaussianBlur stdDeviation="10" result="j"/><feFlood flood-opacity="0.2"/><feComposite operator="in" in2="j"/><feComposite in="SourceGraphic"/></filter><filter id="k" x="74.5" y="206.5" width="307" height="136.112" filterUnits="userSpaceOnUse"><feOffset input="SourceAlpha"/><feGaussianBlur stdDeviation="2.5" result="l"/><feFlood flood-color="#1dcef2" flood-opacity="0.302"/><feComposite operator="in" in2="l"/><feComposite in="SourceGraphic"/></filter><filter id="m" x="0" y="138" width="166" height="146" filterUnits="userSpaceOnUse"><feOffset input="SourceAlpha"/><feGaussianBlur stdDeviation="10" result="n"/><feFlood flood-opacity="0.2"/><feComposite operator="in" in2="n"/><feComposite in="SourceGraphic"/></filter><filter id="o" x="147" y="270" width="122" height="110" filterUnits="userSpaceOnUse"><feOffset input="SourceAlpha"/><feGaussianBlur stdDeviation="10" result="p"/><feFlood flood-opacity="0.2"/><feComposite operator="in" in2="p"/><feComposite in="SourceGraphic"/></filter><clipPath id="q"><rect class="a" width="48" height="50" rx="3" transform="translate(709 411)"/></clipPath><filter id="r" x="356" y="305" width="118" height="110" filterUnits="userSpaceOnUse"><feOffset input="SourceAlpha"/><feGaussianBlur stdDeviation="10" result="s"/><feFlood flood-opacity="0.2"/><feComposite operator="in" in2="s"/><feComposite in="SourceGraphic"/></filter><filter id="t" x="83" y="0" width="115" height="110" filterUnits="userSpaceOnUse"><feOffset input="SourceAlpha"/><feGaussianBlur stdDeviation="10" result="u"/><feFlood flood-opacity="0.2"/><feComposite operator="in" in2="u"/><feComposite in="SourceGraphic"/></filter><linearGradient id="v" x1="59.252" y1="32.829" x2="59.078" y2="37.471" gradientUnits="objectBoundingBox"><stop offset="0" stop-color="#d9d8dc"/><stop offset="1" stop-color="#fff" stop-opacity="0.384"/></linearGradient><linearGradient id="w" x1="88.879" y1="29.75" x2="87.024" y2="33.825" gradientUnits="objectBoundingBox"><stop offset="0" stop-color="#8d67af" stop-opacity="0.671"/><stop offset="1" stop-color="#9f8daf"/></linearGradient><linearGradient id="x" x1="73.949" y1="33.833" x2="73.949" y2="36.993" gradientUnits="objectBoundingBox"><stop offset="0" stop-color="#26053d" stop-opacity="0.761"/><stop offset="1" stop-color="#b7b4b4" stop-opacity="0.278"/></linearGradient><linearGradient id="y" x1="37.246" y1="93.357" x2="39.406" y2="99.066" gradientUnits="objectBoundingBox"><stop offset="0" stop-color="#91739f" stop-opacity="0.459"/><stop offset="1" stop-color="#32054f" stop-opacity="0.541"/></linearGradient><linearGradient id="z" x1="71.101" y1="61.231" x2="66.143" y2="57.118" gradientUnits="objectBoundingBox"><stop offset="0" stop-color="#463d49" stop-opacity="0.329"/><stop offset="1" stop-color="#340a50" stop-opacity="0.82"/></linearGradient><linearGradient id="aa" x1="163.672" y1="41.249" x2="161.175" y2="45.025" gradientUnits="objectBoundingBox"><stop offset="0" stop-color="#715383" stop-opacity="0.145"/><stop offset="1" stop-color="#f4f4f4" stop-opacity="0.235"/></linearGradient><linearGradient id="ab" x1="316.742" y1="46.52" x2="303.727" y2="45.72" gradientUnits="objectBoundingBox"><stop offset="0" stop-color="#a5a1a8" stop-opacity="0.357"/><stop offset="1" stop-color="#370c50" stop-opacity="0.58"/></linearGradient><linearGradient id="ac" x1="-0.875" y1="1.632" x2="-0.876" y2="1.634" gradientUnits="objectBoundingBox"><stop offset="0" stop-color="#fb7655"/><stop offset="0.41" stop-color="#e42b1e"/><stop offset="0.99" stop-color="#900"/><stop offset="1" stop-color="#900"/></linearGradient><linearGradient id="ad" x1="-5.042" y1="2.261" x2="-5.061" y2="2.265" gradientUnits="objectBoundingBox"><stop offset="0" stop-color="#871101"/><stop offset="0.99" stop-color="#911209"/><stop offset="1" stop-color="#911209"/></linearGradient><linearGradient id="ae" x1="-0.946" y1="6.551" x2="-0.948" y2="6.648" xlink:href="#ad"/><linearGradient id="af" x1="-2.173" y1="2.325" x2="-2.17" y2="2.318" gradientUnits="objectBoundingBox"><stop offset="0" stop-color="#fff"/><stop offset="0.23" stop-color="#e57252"/><stop offset="0.46" stop-color="#de3b20"/><stop offset="0.99" stop-color="#a60003"/><stop offset="1" stop-color="#a60003"/></linearGradient><linearGradient id="ag" x1="-1.902" y1="2.822" x2="-1.902" y2="2.815" gradientUnits="objectBoundingBox"><stop offset="0" stop-color="#fff"/><stop offset="0.23" stop-color="#e4714e"/><stop offset="0.56" stop-color="#be1a0d"/><stop offset="0.99" stop-color="#a80d00"/><stop offset="1" stop-color="#a80d00"/></linearGradient><linearGradient id="ah" x1="-2.965" y1="5.412" x2="-2.964" y2="5.4" gradientUnits="objectBoundingBox"><stop offset="0" stop-color="#fff"/><stop offset="0.18" stop-color="#e46342"/><stop offset="0.4" stop-color="#c82410"/><stop offset="0.99" stop-color="#a80d00"/><stop offset="1" stop-color="#a80d00"/></linearGradient><linearGradient id="ai" x1="-3.794" y1="15.534" x2="-3.784" y2="15.577" gradientUnits="objectBoundingBox"><stop offset="0" stop-color="#fff"/><stop offset="0.54" stop-color="#c81f11"/><stop offset="0.99" stop-color="#bf0905"/><stop offset="1" stop-color="#bf0905"/></linearGradient><linearGradient id="aj" x1="-6.587" y1="3.459" x2="-6.575" y2="3.451" gradientUnits="objectBoundingBox"><stop offset="0" stop-color="#fff"/><stop offset="0.31" stop-color="#de4024"/><stop offset="0.99" stop-color="#bf190b"/><stop offset="1" stop-color="#bf190b"/></linearGradient><linearGradient id="ak" x1="-0.855" y1="2.378" x2="-0.847" y2="2.386" gradientUnits="objectBoundingBox"><stop offset="0" stop-color="#bd0012"/><stop offset="0.07" stop-color="#fff"/><stop offset="0.17" stop-color="#fff"/><stop offset="0.27" stop-color="#c82f1c"/><stop offset="0.33" stop-color="#820c01"/><stop offset="0.46" stop-color="#a31601"/><stop offset="0.72" stop-color="#b31301"/><stop offset="0.99" stop-color="#e82609"/><stop offset="1" stop-color="#e82609"/></linearGradient><linearGradient id="al" x1="-1.402" y1="2.315" x2="-1.406" y2="2.317" gradientUnits="objectBoundingBox"><stop offset="0" stop-color="#8c0c01"/><stop offset="0.54" stop-color="#990c00"/><stop offset="0.99" stop-color="#a80d0e"/><stop offset="1" stop-color="#a80d0e"/></linearGradient><linearGradient id="am" x1="-2.978" y1="2.839" x2="-2.984" y2="2.843" gradientUnits="objectBoundingBox"><stop offset="0" stop-color="#7e110b"/><stop offset="0.99" stop-color="#9e0c00"/><stop offset="1" stop-color="#9e0c00"/></linearGradient><linearGradient id="an" x1="-3.758" y1="4.654" x2="-3.762" y2="4.658" gradientUnits="objectBoundingBox"><stop offset="0" stop-color="#79130d"/><stop offset="0.99" stop-color="#9e120b"/><stop offset="1" stop-color="#9e120b"/></linearGradient><radialGradient id="ao" cx="0.32" cy="0.402" r="1.331" gradientTransform="matrix(0.523, 0, 0, -0.523, -1.439, 9.338)" gradientUnits="objectBoundingBox"><stop offset="0" stop-color="#a80d00"/><stop offset="0.99" stop-color="#7e0e08"/><stop offset="1" stop-color="#7e0e08"/></radialGradient><radialGradient id="ap" cx="0.135" cy="0.409" r="1.135" gradientTransform="matrix(0.778, 0, 0, -0.778, -0.472, 5.285)" gradientUnits="objectBoundingBox"><stop offset="0" stop-color="#a30c00"/><stop offset="0.99" stop-color="#800e08"/><stop offset="1" stop-color="#800e08"/></radialGradient><linearGradient id="aq" x1="-3.36" y1="2.589" x2="-3.374" y2="2.6" gradientUnits="objectBoundingBox"><stop offset="0" stop-color="#8b2114"/><stop offset="0.43" stop-color="#9e100a"/><stop offset="0.99" stop-color="#b3100c"/><stop offset="1" stop-color="#b3100c"/></linearGradient><linearGradient id="ar" x1="-3.84" y1="11.609" x2="-3.832" y2="11.589" gradientUnits="objectBoundingBox"><stop offset="0" stop-color="#b31000"/><stop offset="0.44" stop-color="#910f08"/><stop offset="0.99" stop-color="#791c12"/><stop offset="1" stop-color="#791c12"/></linearGradient></defs><g transform="translate(-1020 -865)"><g class="b" transform="translate(356 456)"><path class="c" d="M-2165.5,485.981v18.2l14.207,14.206h62.665l15.651,15.651" transform="translate(2987.5)"/><path class="c" d="M0,48.059v-18.2L14.207,15.651H76.872l26.672-28.378" transform="translate(1114.497 679.049) rotate(-90)"/><path class="c" d="M-2190,485.981v24.572l21.136,21.136" transform="translate(2994)"/><path class="c" d="M0,45.708V21.136l39.636-39.49" transform="translate(1116.847 697.049) rotate(-90)"/><path class="c" d="M-2206,485.981v25.027l-25.753,25.753v89.827" transform="translate(2992)"/><path class="c" d="M25.753,140.607V131.15l-56.67-53.232V-11.909l54.73-54.73" transform="translate(1021.949 740.802) rotate(-90)"/><path class="c" d="M-1887,750.359V733.068l16.588-16.588V694.389l-20.607-20.607" transform="translate(2966)"/><path class="c" d="M-1862.019,750.359V737.607l20.158-20.158v-85.4l-49.774-49.774" transform="translate(2959)"/><path class="c" d="M-1914,750.359V735.343l-18.373-18.373" transform="translate(2974)"/></g><path class="d" d="M113.42,46.972l-9.4-1.2a47.252,47.252,0,0,0-2.845-6.87l5.805-7.475a7.432,7.432,0,0,0-.61-9.9l-7.875-7.875a7.453,7.453,0,0,0-9.925-.635L81.1,18.831a47.083,47.083,0,0,0-6.875-2.845L73.033,6.6A7.489,7.489,0,0,0,65.6,0H54.4a7.488,7.488,0,0,0-7.43,6.585l-1.2,9.4A46.537,46.537,0,0,0,38.9,18.831l-7.47-5.805a7.439,7.439,0,0,0-9.9.61l-7.875,7.87a7.454,7.454,0,0,0-.635,9.93l5.805,7.47a46.7,46.7,0,0,0-2.845,6.87L6.6,46.972A7.489,7.489,0,0,0,0,54.4V65.6a7.488,7.488,0,0,0,6.585,7.43l9.4,1.2a47.252,47.252,0,0,0,2.845,6.87l-5.805,7.475a7.432,7.432,0,0,0,.61,9.9l7.875,7.875a7.458,7.458,0,0,0,9.925.63l7.47-5.805a46.162,46.162,0,0,0,6.87,2.845l1.2,9.38A7.489,7.489,0,0,0,54.4,120H65.6a7.488,7.488,0,0,0,7.43-6.585l1.2-9.4a47.252,47.252,0,0,0,6.87-2.845l7.475,5.805a7.432,7.432,0,0,0,9.9-.61l7.875-7.875a7.448,7.448,0,0,0,.635-9.925l-5.805-7.47a46.164,46.164,0,0,0,2.845-6.87l9.38-1.2A7.489,7.489,0,0,0,120,65.6V54.4a7.48,7.48,0,0,0-6.58-7.43ZM60,85A25,25,0,1,1,85,60,25.029,25.029,0,0,1,60,85Z" transform="translate(1084 1129.998)"/><path class="d" d="M42.025,17.4l-3.483-.443a17.508,17.508,0,0,0-1.054-2.546l2.151-2.77a2.754,2.754,0,0,0-.226-3.666L36.494,5.062a2.762,2.762,0,0,0-3.678-.235L30.051,6.977A17.445,17.445,0,0,0,27.5,5.923L27.06,2.446A2.775,2.775,0,0,0,24.307,0h-4.15A2.775,2.775,0,0,0,17.4,2.44l-.443,3.483a17.243,17.243,0,0,0-2.547,1.054L11.646,4.826a2.756,2.756,0,0,0-3.666.226L5.062,7.968a2.762,2.762,0,0,0-.235,3.679l2.151,2.768a17.3,17.3,0,0,0-1.054,2.546L2.446,17.4A2.775,2.775,0,0,0,0,20.157v4.15A2.775,2.775,0,0,0,2.44,27.06l3.483.443a17.508,17.508,0,0,0,1.054,2.546l-2.151,2.77a2.754,2.754,0,0,0,.226,3.666L7.97,39.4a2.764,2.764,0,0,0,3.678.233l2.768-2.151a17.1,17.1,0,0,0,2.546,1.054l.443,3.476a2.775,2.775,0,0,0,2.753,2.449h4.15a2.775,2.775,0,0,0,2.753-2.44l.443-3.483a17.508,17.508,0,0,0,2.546-1.054l2.77,2.151a2.754,2.754,0,0,0,3.666-.226L39.4,36.494a2.76,2.76,0,0,0,.235-3.678l-2.151-2.768A17.105,17.105,0,0,0,38.542,27.5l3.476-.443a2.775,2.775,0,0,0,2.446-2.753v-4.15A2.771,2.771,0,0,0,42.025,17.4ZM22.232,31.5A9.263,9.263,0,1,1,31.5,22.232,9.274,9.274,0,0,1,22.232,31.5Z" transform="translate(1491.537 907.505)"/><g class="b" transform="translate(356 463)"><path class="e" d="M-1946,492.5V498l6.543,6.543h58.51l13.311,13.311v56.628l-18.155,18.155" transform="translate(2992.916 -0.501)"/><path class="e" d="M-1946,492.5v10l9.986,9.986v12.595" transform="translate(2989.943 -0.501)"/><path class="e" d="M-1946,492.5v32.581" transform="translate(2986.971 -0.501)"/><path class="e" d="M-1946,492.5v10l-8.864,8.864h-82.724l-14.753,14.753" transform="translate(2983.998 -0.501)"/><path class="e" d="M-1946,492.5v5l-6.571,6.571h-161.355l-23.389,23.389" transform="translate(2980.998 -0.501)"/></g><g class="bv" transform="matrix(1, 0, 0, 1, 1020, 865)"><rect class="f" width="310" height="194" rx="3" transform="translate(133 121)"/></g><path class="g" d="M3,0H307a3,3,0,0,1,3,3V16a0,0,0,0,1,0,0H0a0,0,0,0,1,0,0V3A3,3,0,0,1,3,0Z" transform="translate(1153 986)"/><g transform="translate(356 463)"><path class="h" d="M4,0,0,3.5,4,7,4,7V4.548l0,0L2.8,3.5,4,2.449l0,0V0L4,0Z" transform="translate(808 529) rotate(90)"/><path class="i" d="M4,7,0,3.5,4,0,4,0V2.452l0,0L2.8,3.5,4,4.551l0,0V7L4,7Z" transform="translate(810 533) rotate(-90)"/><path class="j" d="M0,0H5V1.5H0Z" transform="translate(820 529)"/><path class="j" d="M0,0H5V1.5H0Z" transform="translate(820 531.5)"/></g><rect class="k" width="5" height="5" rx="1" transform="translate(1168 1017)"/><rect class="k" width="5" height="5" rx="1" transform="translate(1168 1121)"/><rect class="k" width="5" height="5" rx="1" transform="translate(1168 1030)"/><rect class="k" width="5" height="5" rx="1" transform="translate(1168 1134)"/><rect class="k" width="5" height="5" rx="1" transform="translate(1168 1043)"/><rect class="k" width="5" height="5" rx="1" transform="translate(1168 1147)"/><rect class="k" width="5" height="5" rx="1" transform="translate(1168 1160)"/><rect class="k" width="5" height="5" rx="1" transform="translate(1168 1095)"/><rect class="k" width="5" height="5" rx="1" transform="translate(1168 1056)"/><rect class="k" width="5" height="5" rx="1" transform="translate(1168 1108)"/><rect class="k" width="5" height="5" rx="1" transform="translate(1168 1069)"/><rect class="k" width="5" height="5" rx="1" transform="translate(1168 1082)"/><rect class="l" width="22" height="5" rx="1" transform="translate(1178 1017)"/><rect class="l" width="22" height="5" rx="1" transform="translate(1178 1121)"/><rect class="m" width="41.002" height="5" rx="1" transform="translate(1178 1030)"/><rect class="m" width="41.002" height="5" rx="1" transform="translate(1178 1134)"/><rect class="n" width="24" height="5" rx="1" transform="translate(1178 1043)"/><rect class="l" width="34" height="5" rx="1" transform="translate(1193 1147)"/><rect class="n" width="23" height="5" rx="1" transform="translate(1178 1160)"/><rect class="n" width="39" height="5" rx="1" transform="translate(1178 1095)"/><rect class="o" width="21" height="5" rx="1" transform="translate(1178 1056)"/><rect class="o" width="21" height="5" rx="1" transform="translate(1178 1108)"/><rect class="l" width="13" height="5" rx="1" transform="translate(1178 1069)"/><rect class="m" width="22" height="5" rx="1" transform="translate(1178 1082)"/><rect class="p" width="44" height="5" rx="1" transform="translate(1205 1017)"/><rect class="p" width="44" height="5" rx="1" transform="translate(1205 1121)"/><rect class="o" width="10" height="5" rx="1" transform="translate(1224 1030)"/><rect class="o" width="10" height="5" rx="1" transform="translate(1224 1134)"/><rect class="o" width="10" height="5" rx="1" transform="translate(1178 1147)"/><rect class="l" width="35" height="5" rx="1" transform="translate(1204 1056)"/><rect class="l" width="35" height="5" rx="1" transform="translate(1204 1108)"/><rect class="m" width="35" height="5" rx="1" transform="translate(1281 1056)"/><rect class="m" width="35" height="5" rx="1" transform="translate(1281 1108)"/><rect class="p" width="44" height="5" rx="1" transform="translate(1196 1069)"/><rect class="p" width="44" height="5" rx="1" transform="translate(1205 1082)"/><rect class="m" width="29" height="5" rx="1" transform="translate(1254 1017)"/><rect class="m" width="29" height="5" rx="1" transform="translate(1254 1121)"/><rect class="p" width="51" height="5" rx="1" transform="translate(1274 1030)"/><rect class="p" width="51" height="5" rx="1" transform="translate(1274 1134)"/><rect class="o" width="19" height="5" rx="1" transform="translate(1244 1056)"/><rect class="o" width="19" height="5" rx="1" transform="translate(1244 1108)"/><rect class="m" width="28" height="5" rx="1" transform="translate(1245 1069)"/><rect class="l" width="28" height="5" rx="1" transform="translate(1254 1082)"/><rect class="n" width="9" height="5" rx="1" transform="translate(1288 1017)"/><rect class="n" width="9" height="5" rx="1" transform="translate(1288 1121)"/><rect class="p" width="30" height="5" rx="1" transform="translate(1239 1030)"/><rect class="p" width="30" height="5" rx="1" transform="translate(1239 1134)"/><rect class="l" width="8" height="5" rx="1" transform="translate(1268 1056)"/><rect class="l" width="8" height="5" rx="1" transform="translate(1268 1108)"/><rect class="o" width="8" height="5" rx="1" transform="translate(1278 1069)"/><rect class="m" width="8" height="5" rx="1" transform="translate(1287 1082)"/><g transform="translate(342 672.833)"><path class="f" d="M970.649,544.533h-13.58v13.231h2.9a4.265,4.265,0,0,0,7.785,0h2.9Z" transform="translate(91.163 -274.149)"/><rect class="q" width="15.753" height="3.042" rx="1.521" transform="translate(1047.145 275.164)"/><rect class="q" width="15.753" height="3.042" rx="1.521" transform="translate(1047.145 280.705)"/><path class="r" d="M957.112,404.194a21.021,21.021,0,1,0-35.455,15.273,19.117,19.117,0,0,1,5.859,13.924h17.152a19.789,19.789,0,0,1,6.093-14.149A20.944,20.944,0,0,0,957.112,404.194Z" transform="translate(118.927 -161.008)"/><path class="s" d="M965.607,445.647a5.56,5.56,0,0,0-5.517,5.106l-.055.706h-5.993l-.055-.706a5.56,5.56,0,0,0-5.517-5.106,3.5,3.5,0,0,0,0,7.009h4.464l1.842,23.78,1.194-.092-1.836-23.688h5.808l-1.836,23.688,1.194.092,1.842-23.78h4.464a3.5,3.5,0,1,0,0-7.009Zm-17.137,5.812a2.308,2.308,0,1,1,0-4.615,4.357,4.357,0,0,1,4.323,4l.048.614Zm17.137,0h-4.371l.048-.614a4.357,4.357,0,0,1,4.324-4,2.308,2.308,0,0,1,0,4.615Z" transform="translate(97.981 -204.783)"/><rect class="q" width="19.12" height="3.042" rx="1.521" transform="translate(1045.407 269.732)"/></g><rect class="t" width="82" height="158" rx="10" transform="translate(1369 1012)"/><path class="u" d="M3062,152h-60a8.009,8.009,0,0,1-8-8V8a8.009,8.009,0,0,1,8-8h14a2,2,0,0,1,2,2v.981a2,2,0,0,0,2,1.986h24a2,2,0,0,0,2-1.986V2a2,2,0,0,1,2-2h14a8.009,8.009,0,0,1,8,8V144A8.009,8.009,0,0,1,3062,152Z" transform="translate(-1622 1015)"/><g class="v" transform="translate(360 463)"><rect class="u" width="13" height="2" rx="1" transform="translate(1042 553)"/><circle class="u" cx="1" cy="1" r="1" transform="translate(1057 553)"/></g><rect class="w" width="66" height="7" rx="2" transform="translate(1377 1029)"/><rect class="w" width="41" height="7" rx="2" transform="translate(1377 1039)"/><rect class="o" width="30" height="25" rx="2" transform="translate(1377 1062)"/><rect class="l" width="66" height="20" rx="2" transform="translate(1377 1102)"/><rect class="l" width="66" height="24" rx="2" transform="translate(1377 1125)"/><path class="x" d="M0,0H76a0,0,0,0,1,0,0V7a8,8,0,0,1-8,8H8A8,8,0,0,1,0,7V0A0,0,0,0,1,0,0Z" transform="translate(1372 1152)"/><rect class="o" width="30" height="25" rx="2" transform="translate(1410 1062)"/><path class="o" d="M2,0H5A0,0,0,0,1,5,0V25a0,0,0,0,1,0,0H2a2,2,0,0,1-2-2V2A2,2,0,0,1,2,0Z" transform="translate(1443 1062)"/><rect class="y" width="26" height="3" rx="1.5" transform="translate(1377 1055)"/><rect class="y" width="38" height="3" rx="1.5" transform="translate(1377 1096)"/><rect class="z" width="23" height="3" rx="1.5" transform="translate(1380 1105)"/><rect class="z" width="19" height="3" rx="1.5" transform="translate(1380 1128)"/><rect class="aa" width="57" height="2" rx="1" transform="translate(1380 1111)"/><rect class="aa" width="58" height="2" rx="1" transform="translate(1380 1134)"/><rect class="aa" width="56" height="2" rx="1" transform="translate(1380 1140)"/><rect class="aa" width="60" height="2" rx="1" transform="translate(1380 1114)"/><rect class="aa" width="60" height="2" rx="1" transform="translate(1380 1137)"/><rect class="aa" width="49" height="2" rx="1" transform="translate(1380 1143)"/><rect class="aa" width="44" height="2" rx="1" transform="translate(1380 1117)"/><g class="b" transform="translate(609.585 621.105)"><circle class="u" cx="1.676" cy="1.676" r="1.676" transform="translate(784.267 447.895)"/><path class="u" d="M785.22,461.651h-14a.833.833,0,0,1-.8-.859.9.9,0,0,1,.178-.538l7-9.273a.77.77,0,0,1,1.131-.13.816.816,0,0,1,.122.13l6.253,8.282,3.569-4.761a.771.771,0,0,1,1.131-.134.826.826,0,0,1,.126.134l4.313,5.752a.9.9,0,0,1-.126,1.207.772.772,0,0,1-.5.188Z" transform="translate(0 -1.756)"/></g><g class="b" transform="translate(642.585 621.105)"><circle class="u" cx="1.676" cy="1.676" r="1.676" transform="translate(784.267 447.895)"/><path class="u" d="M785.22,461.651h-14a.833.833,0,0,1-.8-.859.9.9,0,0,1,.178-.538l7-9.273a.77.77,0,0,1,1.131-.13.816.816,0,0,1,.122.13l6.253,8.282,3.569-4.761a.771.771,0,0,1,1.131-.134.826.826,0,0,1,.126.134l4.313,5.752a.9.9,0,0,1-.126,1.207.772.772,0,0,1-.5.188Z" transform="translate(0 -1.756)"/></g><g class="bu" transform="matrix(1, 0, 0, 1, 1020, 865)"><path class="ab" d="M-1832,569v85h-78.458" transform="translate(2325 -406)"/></g><circle class="u" cx="3" cy="3" r="3" transform="translate(1430 1110)"/><circle class="u" cx="3" cy="3" r="3" transform="translate(1390 1077)"/><g transform="translate(1932 406)"><g class="bt" transform="matrix(1, 0, 0, 1, -912, 459)"><rect class="u" width="107" height="91" rx="3" transform="translate(439 73)"/></g><rect class="ac" width="91" height="6" rx="3" transform="translate(-465 555)"/><rect class="ac" width="91" height="6" rx="3" transform="translate(-465 565)"/><rect class="ac" width="91" height="6" rx="3" transform="translate(-465 575)"/><rect class="ac" width="91" height="6" rx="3" transform="translate(-465 585)"/><rect class="ac" width="91" height="6" rx="3" transform="translate(-465 596)"/><rect class="ac" width="63" height="6" rx="3" transform="translate(-465 607)"/><path class="ad" d="M1.285-3.805l1.6-6.867h-.9L.384-3.805Z" transform="translate(-452.521 551.05)"/><path class="ad" d="M3.121-4.785A2.231,2.231,0,0,0,5.627-7.178v-3.494H4.6V-7.2A1.37,1.37,0,0,1,3.121-5.687,1.37,1.37,0,0,1,1.647-7.2v-3.468H.616v3.494A2.235,2.235,0,0,0,3.121-4.785ZM0-3.805H6.242v.542H0Z" transform="translate(-442.149 551.05)"/><path class="g" d="M4.714-3.805a1.787,1.787,0,0,0,1.96-1.863A1.645,1.645,0,0,0,5.381-7.347,1.529,1.529,0,0,0,6.543-8.922a1.757,1.757,0,0,0-1.94-1.75H1.056v6.867ZM4.29-7.944h-1.8V-9.385h1.8a.714.714,0,0,1,.788.721A.7.7,0,0,1,4.29-7.944ZM4.35-5.092H2.491V-6.657H4.35a.776.776,0,0,1,.859.782A.755.755,0,0,1,4.35-5.092Z" transform="translate(-466.302 551.05)"/><path class="ad" d="M2.368-3.805v-1.93H0v-.643H2.368V-9.612H.288v-1.06H5.652v1.06H3.572v3.233H5.94v.643H3.572v1.93Z" transform="translate(-428.416 551.05)"/><path class="ad" d="M5.679-3.827,3.528-6.779,5.55-9.566H4.337l-1.471,2.1-1.48-2.1H.181l2.013,2.8L.052-3.827h1.2L2.866-6.073,4.474-3.827ZM9-7.137v-.636H7.175c1.1-.834,1.8-1.513,1.8-2.279a1.328,1.328,0,0,0-1.489-1.266,1.958,1.958,0,0,0-1.526.661l.42.469a1.436,1.436,0,0,1,1.112-.488c.377,0,.754.191.754.624,0,.6-.63,1.13-2.23,2.341v.574Z" transform="translate(-415.037 551.072)"/></g><g class="bs" transform="matrix(1, 0, 0, 1, 1020, 865)"><path class="ab" d="M-1950.885,624V743.112h-290V661.555" transform="translate(2323.89 -409)"/></g><g transform="translate(1201 770)"><g class="br" transform="matrix(1, 0, 0, 1, -181, 95)"><rect class="u" width="106" height="86" rx="3" transform="translate(30 168)"/></g><path class="ae" d="M0,0H83a3,3,0,0,1,3,3V83a3,3,0,0,1-3,3H0a0,0,0,0,1,0,0V0A0,0,0,0,1,0,0Z" transform="translate(-131 263)"/><rect class="o" width="70" height="70" rx="2" transform="translate(-123 271)"/><g class="b" transform="translate(-116.04 292)"><circle class="u" cx="3.887" cy="3.887" r="3.887" transform="translate(32.137)"/><path class="u" d="M804.764,476.157H772.281a1.933,1.933,0,0,1-1.866-1.993,2.079,2.079,0,0,1,.412-1.248L787.068,451.4a1.787,1.787,0,0,1,2.624-.3,1.9,1.9,0,0,1,.283.3l14.508,19.215,8.28-11.045a1.788,1.788,0,0,1,2.624-.311,1.92,1.92,0,0,1,.292.311l10.007,13.345a2.084,2.084,0,0,1-.292,2.8,1.791,1.791,0,0,1-1.166.437Z" transform="translate(-770.415 -448.317)"/></g><rect class="af" width="1" height="8" transform="translate(-138.343 288.818) rotate(45)"/><circle class="g" cx="4" cy="4" r="4" transform="translate(-145 304)"/><path class="af" d="M3.444,0,6.889,7.75,3.444,6.889,0,7.75Z" transform="translate(-147.076 274.598) rotate(-45)"/><path class="af" d="M-.01,12.86v.764H3.858V12.86l-1.064-.077c-.145-.01-.155-.048-.155-.184V7.678h1c.106,0,.135.01.155.106l.155.841H5v-2H-1.228v2H-.164l.155-.841c.019-.1.048-.106.155-.106h1V12.6c0,.145-.019.184-.155.193Z" transform="translate(-142.772 313.376)"/></g><g class="bq" transform="matrix(1, 0, 0, 1, 1020, 865)"><rect class="u" width="62" height="50" rx="3" transform="translate(177 300)"/></g><g class="ag" transform="translate(809 716)"><g transform="translate(708 411)"><path class="ah" d="M0,0H50V50H0Z"/><path d="M13.147,41.784l3.826-2.316c.738,1.309,1.41,2.416,3.021,2.416,1.544,0,2.518-.6,2.518-2.953V22.955h4.7V39c0,4.867-2.853,7.082-7.015,7.082a7.293,7.293,0,0,1-7.048-4.3m16.615-.5,3.826-2.215a5.114,5.114,0,0,0,4.632,2.853c1.947,0,3.188-.973,3.188-2.316,0-1.611-1.275-2.182-3.423-3.121l-1.174-.5c-3.39-1.443-5.639-3.255-5.639-7.081,0-3.524,2.685-6.209,6.88-6.209a6.94,6.94,0,0,1,6.679,3.759l-3.659,2.35a3.2,3.2,0,0,0-3.021-2.014A2.044,2.044,0,0,0,35.8,28.795c0,1.41.873,1.98,2.886,2.853l1.175.5c3.994,1.712,6.243,3.457,6.243,7.384,0,4.229-3.323,6.545-7.787,6.545-4.363,0-7.182-2.081-8.558-4.8"/></g></g><g transform="translate(399 484)"><g transform="translate(-129.139 14)"><g class="bp" transform="matrix(1, 0, 0, 1, 750.14, 367)"><rect class="u" width="58" height="50" rx="3" transform="translate(386 335)"/></g></g><g transform="translate(1008.719 716.488)"><path class="ai" d="M7.954,76.141H5.8V74.167H8.046c.826,0,1.239.321,1.239,1.01.046.643-.413.964-1.331.964m1.561-1.974A1.9,1.9,0,0,0,8.276,73.8H5.2v4.682h.6V76.508h2.3a2.289,2.289,0,0,0,1.331-.367,1.161,1.161,0,0,0,.5-1.01,1.127,1.127,0,0,0-.413-.964Zm3.994,3.351a2.156,2.156,0,0,1-.275.413,1.951,1.951,0,0,1-1.285.367,1.852,1.852,0,0,1-1.194-.367,1.186,1.186,0,0,1-.413-.964,1.712,1.712,0,0,1,.092-.551A1.429,1.429,0,0,1,10.755,76a1.852,1.852,0,0,1,1.194-.367c1.1,0,1.653.459,1.653,1.331a1.712,1.712,0,0,1-.092.551m.092-1.744a2.45,2.45,0,0,0-1.653-.459,2.4,2.4,0,0,0-1.607.459,1.492,1.492,0,0,0-.5,1.148,1.546,1.546,0,0,0,.551,1.194,1.656,1.656,0,0,0,.689.367,2.83,2.83,0,0,0,.918.092,2.67,2.67,0,0,0,1.7-.459,1.522,1.522,0,0,0,.5-1.194,1.577,1.577,0,0,0-.6-1.148Zm4.682,1.882c0,.643-.643.964-1.882.964a6.163,6.163,0,0,1-.964-.046,2.1,2.1,0,0,1-.643-.23.617.617,0,0,1-.275-.321.886.886,0,0,1-.138-.459h.6a.6.6,0,0,0,.321.551,2.267,2.267,0,0,0,1.148.23c.872,0,1.285-.184,1.285-.6,0-.23-.138-.367-.459-.459-.046,0-.413-.046-1.056-.138l-1.194-.184a.729.729,0,0,1-.5-.689.687.687,0,0,1,.459-.689,4.766,4.766,0,0,1,.551-.138,4.2,4.2,0,0,1,.78-.046c1.194,0,1.79.321,1.79,1.01h-.551c0-.459-.413-.735-1.285-.735a2.682,2.682,0,0,0-.964.138.442.442,0,0,0-.321.459q0,.275.413.413a8.419,8.419,0,0,0,1.148.138,3.735,3.735,0,0,1,1.1.184c.459.092.643.321.643.643Zm2.3.826-.23.046h-.138a1.918,1.918,0,0,1-.826-.138c-.184-.092-.23-.275-.23-.5V75.728h-.735v-.321h.689V74.4h.551v1.01h.918v.321H19.66v2.066a.357.357,0,0,0,.138.321,1.071,1.071,0,0,0,.5.092h.092a.457.457,0,0,0,.184-.046v.321Zm3.627-.689a1.7,1.7,0,0,1-.5.23,2.71,2.71,0,0,1-.643.092q-1.653,0-1.653-1.239a1.156,1.156,0,0,1,.413-.918,1.847,1.847,0,0,1,1.194-.321,1.847,1.847,0,0,1,1.194.321,1.066,1.066,0,0,1,.413.872,1.127,1.127,0,0,1-.413.964m.918-2.341h-.5V76a2.427,2.427,0,0,0-.5-.413,2.676,2.676,0,0,0-1.148-.23,2.529,2.529,0,0,0-1.561.413,1.425,1.425,0,0,0-.5,1.148,1.466,1.466,0,0,0,.138.643,2.038,2.038,0,0,0,.367.5,2.474,2.474,0,0,0,1.515.413,2.068,2.068,0,0,0,1.7-.6v.551a1.075,1.075,0,0,1-.367.826,1.705,1.705,0,0,1-1.194.275,2.268,2.268,0,0,1-1.1-.184.662.662,0,0,1-.321-.5h-.551a.948.948,0,0,0,.459.734,3.174,3.174,0,0,0,1.515.275q2.066,0,2.066-1.377v-3.03Zm2.892.275c-.138,0-.275-.046-.459-.046a1.124,1.124,0,0,0-1.285,1.285v1.515h-.5V75.407h.551v.551h.046a1.435,1.435,0,0,1,.413-.5,2.3,2.3,0,0,1,.918-.184h.367l-.046.459Zm.459,1.056a1.352,1.352,0,0,1,.459-.826,1.7,1.7,0,0,1,.5-.23,2.71,2.71,0,0,1,.643-.092A1.807,1.807,0,0,1,31.229,76a1.091,1.091,0,0,1,.459.78H28.474m3.259-.964a1.656,1.656,0,0,0-.689-.367,3.052,3.052,0,0,0-.964-.138,2.778,2.778,0,0,0-1.607.413,1.31,1.31,0,0,0-.551,1.194,1.48,1.48,0,0,0,.551,1.194,2.626,2.626,0,0,0,1.653.5,4.043,4.043,0,0,0,.78-.092,2.654,2.654,0,0,0,.643-.23,1.259,1.259,0,0,0,.6-.78H31.6c-.184.5-.689.78-1.469.78a2.137,2.137,0,0,1-1.285-.367,1.029,1.029,0,0,1-.367-.872h3.764a1.423,1.423,0,0,0-.5-1.239Z" transform="translate(0 -36.732)"/><path class="aj" d="M70.3,77.135c0,.918-.826,1.377-2.433,1.377a3.6,3.6,0,0,1-2.112-.459,1.364,1.364,0,0,1-.551-1.194h.643c0,.872.689,1.285,2.02,1.285a2.888,2.888,0,0,0,1.423-.275.834.834,0,0,0,.367-.734.729.729,0,0,0-.5-.689,9.549,9.549,0,0,0-1.377-.275,12.336,12.336,0,0,1-1.79-.367.956.956,0,0,1-.6-.964,1.006,1.006,0,0,1,.5-.918,3.725,3.725,0,0,1,1.882-.321c1.607,0,2.387.459,2.387,1.423h-.643c0-.734-.6-1.056-1.79-1.056a2.914,2.914,0,0,0-1.285.23.678.678,0,0,0-.367.689.638.638,0,0,0,.5.643,8.1,8.1,0,0,0,1.561.321,5.531,5.531,0,0,1,1.653.367,1.081,1.081,0,0,1,.5.918Zm5.279.459a2.791,2.791,0,0,1-.826.413,3.58,3.58,0,0,1-1.01.138,2.962,2.962,0,0,1-1.882-.551,1.871,1.871,0,0,1-.734-1.515,1.835,1.835,0,0,1,.734-1.561,3.052,3.052,0,0,1,1.882-.551,2.727,2.727,0,0,1,1.882.6,2.416,2.416,0,0,1,.551.643,1.748,1.748,0,0,1,.184.872,1.912,1.912,0,0,1-.78,1.515m.367.321a1.98,1.98,0,0,0,.734-.78,2.723,2.723,0,0,0,.23-1.056,2.23,2.23,0,0,0-.78-1.744,3.562,3.562,0,0,0-1.01-.551,4.171,4.171,0,0,0-1.377-.184,4.088,4.088,0,0,0-2.387.643,2.079,2.079,0,0,0-.872,1.79,2.262,2.262,0,0,0,.872,1.79,4.751,4.751,0,0,0,3.4.6,2.771,2.771,0,0,0,.734-.23l.964.6.413-.321-.918-.551Zm5.876.459H77.365V73.692h.6v4.315h3.856Z" transform="translate(-32.456 -36.623)"/><g transform="translate(13.815 5.896)"><path class="ai" d="M45.2,27.494c.184-1.469.138-1.7,1.194-1.423l.275.046a6.579,6.579,0,0,0,2.571-.413c1.377-.643,2.2-1.7.826-1.423-3.122.643-3.351-.413-3.351-.413C50.015,19,51.393,12.8,50.2,11.289c-3.259-4.132-8.86-2.2-8.952-2.112H41.2a12.883,12.883,0,0,0-2.066-.23,5.152,5.152,0,0,0-3.305.964S25.823,5.78,26.282,15.1c.092,1.974,2.846,14.965,6.106,11.063,1.194-1.423,2.341-2.663,2.341-2.663A3.186,3.186,0,0,0,36.7,24l.046-.046v.551c-.826.918-.6,1.1-2.3,1.469s-.689.964-.046,1.148a3.525,3.525,0,0,0,3.856-1.239l-.046.184c.321.275.321,1.882.367,3.076a11.107,11.107,0,0,0,.367,2.892c.23.643.5,2.3,2.708,1.836,2.02-.551,3.443-1.1,3.535-6.381" transform="translate(-25.211 -7.385)"/><path class="ai" d="M39.865,33.488a3.086,3.086,0,0,1-3.03-2.479c0-.046-.046-.138-.046-.184a13.1,13.1,0,0,1-.459-3.259v-1.1a4.892,4.892,0,0,1-3.259.184,2.618,2.618,0,0,1-1.423-.826,2.338,2.338,0,0,1-2.341.5c-3.535-1.148-5.279-11.844-5.325-12.762-.138-2.938.643-5,2.341-6.243,2.708-1.882,6.7-.78,8.217-.275a6.625,6.625,0,0,1,3.443-.872,13.117,13.117,0,0,1,1.974.184c1.607-.5,6.794-1.423,9.962,2.617,1.653,2.112-.046,8.263-2.663,12.762a6.288,6.288,0,0,0,1.377-.184c1.515-.321,1.928.6,2.02.872.459,1.423-1.515,2.479-2.158,2.754a7.571,7.571,0,0,1-3.122.551h-.23v.321c-.138,5.417-1.607,6.794-4.315,7.345A8.41,8.41,0,0,1,39.865,33.488Zm-2.02-9.916c.643.551.735,1.515.78,3.305v.643a15.18,15.18,0,0,0,.275,2.525c.046.092.046.184.092.275.23.734.321,1.056,1.285.826,1.377-.275,2.341-.5,2.479-5.142l1.148.046-1.1-.184.046-.275c.092-.872.184-1.561.78-1.974a1.653,1.653,0,0,1,1.194-.275,1.809,1.809,0,0,1-.459-.78l-.092-.459.275-.413c3.305-4.912,4.223-10.421,3.581-11.293-2.571-3.305-7.07-1.928-7.529-1.79l-.092.046-.413.092L39.819,8.7a7.933,7.933,0,0,0-1.882-.184,4.159,4.159,0,0,0-2.571.734l-.551.413-.6-.275c-1.194-.5-4.728-1.469-6.565-.184-1.01.734-1.469,2.158-1.377,4.223.138,2.617,2.341,10.421,3.718,10.7,0,0,.138-.046.321-.321,1.194-1.469,2.341-2.663,2.387-2.708l.689-.689.826.551a2.2,2.2,0,0,0,.918.321l1.928-1.653L36.79,22.47v.275l.092.551-.367.413h0l.918.413Z" transform="translate(-23.966 -5.896)"/></g><path class="ak" d="M50.161,24.08c-3.122.643-3.351-.413-3.351-.413C50.115,18.8,51.493,12.6,50.3,11.089c-3.259-4.132-8.86-2.2-8.952-2.112H41.3a12.883,12.883,0,0,0-2.066-.23,5.152,5.152,0,0,0-3.305.964S25.923,5.58,26.382,14.9c.092,1.974,2.846,14.965,6.106,11.063,1.194-1.423,2.341-2.663,2.341-2.663a3.186,3.186,0,0,0,1.974.5l.046-.046v.551c-.826.918-.6,1.1-2.3,1.469s-.689.964-.046,1.148a3.525,3.525,0,0,0,3.856-1.239l-.046.184a5.645,5.645,0,0,1,.5,3.03,9.114,9.114,0,0,0,.184,2.938c.23.735.5,2.3,2.708,1.836a3.286,3.286,0,0,0,2.938-3.122c.092-1.239.321-1.056.321-2.112l.184-.5c.184-1.653.046-2.2,1.148-1.928l.275.046a6.579,6.579,0,0,0,2.571-.413c1.561-.78,2.387-1.836,1.01-1.561Z" transform="translate(-11.45 -1.381)"/><g transform="translate(14.548 6.693)"><g transform="translate(0 0)"><path class="u" d="M40.866,33.692a2.854,2.854,0,0,1-2.708-2.066c-.367-.872-.413-4.177-.367-7.07a.391.391,0,0,1,.78.046,32.917,32.917,0,0,0,.275,6.748,2.084,2.084,0,0,0,2.708,1.515c1.653-.367,2.249-.964,2.525-2.525.23-1.194.643-4.682.689-5.371a.4.4,0,0,1,.413-.367.375.375,0,0,1,.367.413c-.046.734-.459,4.177-.689,5.463a3.4,3.4,0,0,1-3.122,3.168A5.853,5.853,0,0,1,40.866,33.692ZM30.859,26.577a1.952,1.952,0,0,1-.5-.092c-2.892-.964-4.682-10.834-4.774-12.073-.138-2.663.551-4.5,2.02-5.555,2.938-2.066,7.85-.092,8.034,0a.462.462,0,0,1,.23.5.462.462,0,0,1-.5.23c-.046,0-4.728-1.882-7.3-.046-1.239.872-1.836,2.525-1.7,4.912.092,1.744,2.02,10.65,4.223,11.385.138.046.551.184,1.194-.551,1.194-1.423,2.3-2.571,2.3-2.571a.39.39,0,0,1,.551.551s-1.1,1.148-2.249,2.525A2.029,2.029,0,0,1,30.859,26.577Zm15.516-2.984a.414.414,0,0,1-.23-.046A.381.381,0,0,1,46.054,23c3.305-4.912,4.5-10.88,3.489-12.165-2.984-3.81-7.988-2.2-8.447-2.02a.045.045,0,0,0-.046.046.407.407,0,0,1-.459-.184.435.435,0,0,1,.138-.5.142.142,0,0,0,.092-.046h.046c.964-.321,6.151-1.7,9.273,2.3,1.423,1.836-.321,8.4-3.443,13.037A.525.525,0,0,1,46.375,23.593Z" transform="translate(-25.562 -7.633)"/><path class="u" d="M54.909,26.1a2.81,2.81,0,0,1-1.377-.275.882.882,0,0,1-.413-.6c-.092-1.469.689-1.79,1.148-1.882-.046-.092-.138-.184-.184-.275a5.147,5.147,0,0,1-.826-1.377c-.046-.092-.184-.321-.321-.6-.826-1.423-2.479-4.453-1.377-5.968.5-.689,1.469-1.01,2.938-.826-.459-1.331-2.525-5.325-7.253-5.417a4.539,4.539,0,0,0-3.535,1.331C41.734,12.232,41.78,15.9,41.78,15.9a.391.391,0,0,1-.78.046c0-.184-.092-4.04,2.158-6.289A5.537,5.537,0,0,1,47.243,8.1c5.876.138,7.988,5.738,8.034,6.519a.415.415,0,0,1-.321.5h-.138c-.964-.138-2.249-.184-2.708.459-.826,1.148.78,3.948,1.423,5.187.184.321.275.551.367.689a5.406,5.406,0,0,0,.734,1.194,3.221,3.221,0,0,1,.459.735c.046.046.459.643,2.892.138.643-.138,1.01,0,1.148.321.23.689-1.056,1.515-1.744,1.836A8,8,0,0,1,54.909,26.1Zm-.23-2.066a.276.276,0,0,1-.184.046c-.367.092-.689.184-.643,1.148a5.009,5.009,0,0,0,3.168-.275,5.16,5.16,0,0,0,1.1-.689h0c-1.607.321-2.708.275-3.351-.138A.1.1,0,0,0,54.679,24.029Z" transform="translate(-33.913 -7.885)"/></g><g transform="translate(6.998 6.53)"><path class="u" d="M43.933,45.187a6.025,6.025,0,0,1-1.239-.138c-.138-.046-1.194-.321-1.194-1.01,0-.643.918-.826,1.239-.872,1.194-.23,1.285-.321,1.653-.826a3.348,3.348,0,0,1,.413-.5h0a1.2,1.2,0,0,1,1.469-.367,1.6,1.6,0,0,1,.872,1.01,1.264,1.264,0,0,1-.184,1.148A3.529,3.529,0,0,1,43.933,45.187Zm-1.561-1.1a1.291,1.291,0,0,0,.5.23,3.021,3.021,0,0,0,3.443-1.1.509.509,0,0,0,.046-.5.676.676,0,0,0-.413-.5c-.23-.092-.321-.138-.6.138h0a4.6,4.6,0,0,1-.413.459c-.459.6-.689.78-2.066,1.1A1.988,1.988,0,0,0,42.372,44.085Z" transform="translate(-41.181 -32.406)"/><path class="u" d="M44.705,31.885a.355.355,0,0,1-.367-.321v-.138a3.532,3.532,0,0,1-2.433-1.1,4.034,4.034,0,0,1-1.056-3.351,15.588,15.588,0,0,0,.092-3.168v-.413c0-.643,1.836-1.423,2.892-1.515a2.018,2.018,0,0,1,2.433,1.653c.689,3.213.046,4.591-.413,5.646a2.808,2.808,0,0,0-.23.551l-.046.138a3.443,3.443,0,0,0-.367,1.607.378.378,0,0,1-.321.459Zm-3.076-8.4v.23a14.325,14.325,0,0,1-.092,3.351,3.215,3.215,0,0,0,.872,2.708,2.793,2.793,0,0,0,1.974.872c.092-.321.23-.689.367-1.1l.046-.138c.092-.184.138-.367.23-.6.459-.964,1.01-2.2.367-5.142a1.176,1.176,0,0,0-.918-1.01A4.055,4.055,0,0,0,41.63,23.484Zm-.046.046Z" transform="translate(-40.806 -21.858)"/></g></g><g transform="translate(24.376 14.19)"><g transform="translate(0 0.136)"><path class="u" d="M47.2,24.77a.69.69,0,0,0,.551.5.551.551,0,0,0,.6-.367c0-.138-.23-.275-.551-.321s-.6.046-.6.184Z" transform="translate(-47.096 -24.43)"/><path class="u" d="M47.72,25.243h-.092a.849.849,0,0,1-.551-.367.344.344,0,0,1-.092-.321h0c0-.046.046-.092.092-.184a1.153,1.153,0,0,1,1.239.184.347.347,0,0,1,.046.184A.616.616,0,0,1,47.72,25.243Zm-.5-.6a.566.566,0,0,0,.459.367.486.486,0,0,0,.459-.23,1.148,1.148,0,0,0-.459-.184A.62.62,0,0,0,47.215,24.646Zm0,0Z" transform="translate(-46.973 -24.261)"/></g><g transform="translate(8.735)"><path class="u" d="M67.348,24.27a.69.69,0,0,1-.551.5.551.551,0,0,1-.6-.367c0-.138.23-.275.551-.321s.6.046.6.184Z" transform="translate(-66.108 -24.023)"/><path class="u" d="M66.6,24.761a.871.871,0,0,1-.413-.138c-.092-.092-.184-.184-.184-.275a.169.169,0,0,1,.046-.138.877.877,0,0,1,.551-.23c.321-.046.643,0,.689.184V24.3h-.046a.8.8,0,0,1-.6.459Zm.23-.643h-.184a1.458,1.458,0,0,0-.5.184v.046c0,.046.046.092.138.184a.558.558,0,0,0,.413.092.727.727,0,0,0,.5-.459h0A1.737,1.737,0,0,0,66.826,24.118Z" transform="translate(-66 -23.964)"/></g></g><path class="u" d="M69.227,30.184a.414.414,0,0,1-.23-.046.381.381,0,0,1-.092-.551,4.72,4.72,0,0,0,.459-3.4,7.657,7.657,0,0,1-.092-1.469,10.034,10.034,0,0,1,.138-1.285,4.747,4.747,0,0,0,.092-1.423.375.375,0,0,1,.367-.413.4.4,0,0,1,.413.367,5.491,5.491,0,0,1-.138,1.561c-.046.367-.092.734-.138,1.194,0,.413.046.872.092,1.331a5.255,5.255,0,0,1-.6,3.9C69.5,30.139,69.365,30.184,69.227,30.184Z" transform="translate(-34.417 -8.495)"/></g></g><g class="bo" transform="matrix(1, 0, 0, 1, 1020, 865)"><rect class="u" width="55" height="50" rx="3" transform="translate(113 30)"/></g><g transform="translate(1134.582 893.4)"><g transform="translate(16.418 6.6)"><path class="al" d="M26.117,6.7c-2.02.717-3.91,2.8-5.8,6.192-2.8,5.149-6.387,12.448-1.434,18.249,2.281,2.672,6.126,4.236,11.08,1.76,3.976-2.02,5.149-7.821,3.65-10.493-3-5.605-6-6.974-6.778-10.428A21.749,21.749,0,0,1,26.117,6.7Z" transform="translate(-16.418 -6.635)"/><path class="am" d="M26.117,6.6c-2.02.717-3.976,2.8-5.8,6.192-2.8,5.149-6.387,12.448-1.434,18.249C21.164,33.713,24.944,34.56,27.03,33a6.619,6.619,0,0,0,2.8-4.106,17.053,17.053,0,0,0-.2-6.909,22.112,22.112,0,0,1-.391-6,.064.064,0,0,1-.065-.065A9.515,9.515,0,0,1,26.9,11.814,18.837,18.837,0,0,1,26.117,6.6Z" transform="translate(-16.418 -6.6)"/><path class="an" d="M25.788,8c-1.89,1.5-3.259,3.976-4.171,7.43a33.885,33.885,0,0,0-1.043,12.9c.912,5.475,5.8,7.5,10.754,4.953,3.063-1.564,4.367-4.888,4.3-8.538-.065-3.78-7.365-8.017-8.6-11.145A15.375,15.375,0,0,1,25.788,8Z" transform="translate(-17.783 -7.088)"/><path class="ao" d="M29.182,21.92c2.281,2.868,2.737,4.888,1.5,6-1.89,1.695-6.583,2.8-9.45.782-1.955-1.369-2.672-4.3-2.216-8.8a37.5,37.5,0,0,0-2.02,5.084,12.281,12.281,0,0,0-.456,5.344c.717,1.369,2.346,2.346,5.018,2.8,3.976.717,7.756.326,10.3-.912,1.695-.847,2.477-1.695,2.411-2.542a5.5,5.5,0,0,0-1.173-3.585A23.914,23.914,0,0,0,29.182,21.92Z" transform="translate(-16.42 -11.232)"/><path class="ap" d="M21.838,18.6a11.466,11.466,0,0,0,1.629,5.931,26.824,26.824,0,0,0,6.387,7.886c1.89,1.564,3.454,2.02,4.562,1.5-.912,1.695-1.955,2.477-3,2.477-1.564-.065-3.519-.717-6.583-4.432A22.934,22.934,0,0,1,20.6,24.922c.13-.847.261-1.76.391-2.607C21.187,21.468,21.447,20.229,21.838,18.6Z" transform="translate(-17.874 -10.779)"/><path class="aq" d="M27.955,21.5c.2,1.695.847,4.432,0,6.192-.847,1.825-4.693,5.084-3.65,7.951s3.65,2.216,5.279.912a8,8,0,0,0,2.672-5.018c.2-1.5-.456-4.432-.652-6.974a13.238,13.238,0,0,1,.261-4.367l-.521-.652L28.411,18.7A4.64,4.64,0,0,0,27.955,21.5Z" transform="translate(-19.103 -10.814)"/><path class="ar" d="M29.31,10.1a6.107,6.107,0,0,0-2.672,2.411c-1.3,1.76-1.955,2.868-1.434,6.387.326,2.346.521,4.5.717,6.517l4.106-11.927c-.13-.587-.261-1.173-.391-1.629A7.648,7.648,0,0,1,29.31,10.1Z" transform="translate(-19.415 -7.819)"/><path class="as" d="M30.476,15.2c-1.043.587-1.825,1.89-2.411,3.715A50.509,50.509,0,0,0,26.5,26.8c.652-2.151,1.043-3.715,1.238-4.693.326-1.434.391-3.519,1.238-4.888A9.514,9.514,0,0,1,30.476,15.2Z" transform="translate(-19.929 -9.595)"/><path class="at" d="M25.1,46.2c1.695.261,2.607.456,2.672.652.13.261-.2.521-1.173.391A2.374,2.374,0,0,1,25.1,46.2Z" transform="translate(-19.442 -20.391)"/><path class="au" d="M24.306,10.1a26.976,26.976,0,0,0-2.477,3.585c-.717,1.238-1.173,2.216-1.5,2.8a15.177,15.177,0,0,0-.13,2.086,16.96,16.96,0,0,0,.261,3A23.142,23.142,0,0,1,21.7,15.249,17.332,17.332,0,0,1,24.306,10.1Z" transform="translate(-17.735 -7.819)"/><path class="av" d="M52.53,30.214h3.391a.114.114,0,0,0,.129-.129c.343-3.349-2.1-3.091-2.1-3.091-1.717,0-2.447,1.331-2.447,2.962A2.717,2.717,0,0,0,54.462,32.7a1.814,1.814,0,0,0,1.417-.644.131.131,0,0,0,0-.172l-.3-.3a.131.131,0,0,0-.172,0A1.881,1.881,0,0,1,52.4,30.342.114.114,0,0,1,52.53,30.214Zm1.417-2.361c.644,0,1.116.386,1.2,1.374a.114.114,0,0,1-.129.129H52.573a.114.114,0,0,1-.129-.129A1.455,1.455,0,0,1,53.947,27.853Z" transform="translate(-53.222 7.7)"/><path class="av" d="M65.272,21.7h.687a.114.114,0,0,1,.129.129v6.182c0,.944.6.816.9.773a.114.114,0,0,1,.129.129v.644a.114.114,0,0,1-.129.129c-1.717-.043-1.889-.816-1.889-1.545V21.829C65.143,21.786,65.186,21.7,65.272,21.7Z" transform="translate(-60.984 10.719)"/><path class="av" d="M72.829,27.4h.73a.114.114,0,0,1,.129.129v5.237a.114.114,0,0,1-.129.129h-.73a.114.114,0,0,1-.129-.129V27.529A.114.114,0,0,1,72.829,27.4Z" transform="translate(-65.321 7.466)"/><path class="av" d="M72.829,22.644h.73a.114.114,0,0,0,.129-.129v-.687a.114.114,0,0,0-.129-.129h-.73a.114.114,0,0,0-.129.129v.687A.114.114,0,0,0,72.829,22.644Z" transform="translate(-65.321 10.719)"/><path class="av" d="M91.229,27.4h.73a.114.114,0,0,1,.129.129v5.237a.114.114,0,0,1-.129.129h-.73a.114.114,0,0,1-.129-.129V27.529A.114.114,0,0,1,91.229,27.4Z" transform="translate(-75.822 7.466)"/><path class="av" d="M100.062,27.163v.73a.114.114,0,0,1-.129.129c-1.2.043-1.545.429-1.545,1.073V32.53a.114.114,0,0,1-.129.129h-.73a.114.114,0,0,1-.129-.129V27.335a.114.114,0,0,1,.129-.129h.73a.114.114,0,0,1,.129.129v.386a1.844,1.844,0,0,1,1.545-.644C100.019,27.035,100.062,27.078,100.062,27.163Z" transform="translate(-79.417 7.659)"/><path class="av" d="M91.229,22.644h.73a.114.114,0,0,0,.129-.129v-.687a.114.114,0,0,0-.129-.129h-.73a.114.114,0,0,0-.129.129v.687A.114.114,0,0,0,91.229,22.644Z" transform="translate(-75.822 10.719)"/><path class="av" d="M82.257,32.737l-1.8-2.576a.08.08,0,0,1,0-.129l1.588-2.361c.043-.086,0-.172-.086-.172H81.27c-.043,0-.086,0-.086.043l-1.159,1.674a.122.122,0,0,1-.215,0l-1.159-1.674c-.043-.043-.043-.043-.086-.043h-.687c-.086,0-.172.129-.086.172l1.588,2.361a.08.08,0,0,1,0,.129l-1.8,2.576c-.043.086,0,.215.086.215h.816c.043,0,.086,0,.086-.043l1.245-1.846a.122.122,0,0,1,.215,0l1.245,1.846c.043.043.043.043.086.043h.816c.086-.043.172-.129.086-.215Z" transform="translate(-68.095 7.409)"/></g></g><g transform="translate(1215.461 1172.138)"><path class="aw" d="M64.483,61.418,51.946,68.863l16.233-1.1,1.25-16.368Z" transform="translate(-47.471 -46.965)"/><path class="ax" d="M185.565,139.109l-1.4-9.63-3.8,5.018Z" transform="translate(-164.83 -118.324)"/><path class="ay" d="M68.8,232.746l-10.221-.8-6,1.894Z" transform="translate(-48.047 -211.962)"/><path class="az" d="M20.227,165.22l2.553-8.365-5.619,1.2Z" transform="translate(-15.683 -143.342)"/><path class="ba" d="M84.111,90.428l-2.35-9.2-6.724,6.3Z" transform="translate(-68.573 -74.227)"/><path class="bb" d="M162.5,27.665l-6.356-5.191-1.77,5.722Z" transform="translate(-141.073 -20.538)"/><path class="bc" d="M149.521.7l-3.738,2.066L143.424.669Z" transform="translate(-131.068 -0.611)"/><path class="bd" d="M0,136.985l1.566-2.856L.3,130.727Z" transform="translate(0 -119.465)"/><path class="u" d="M2.5,11.155,3.771,14.77l5.538-1.242,6.323-5.876,1.784-5.668L14.606,0,9.829,1.788C8.324,3.187,5.4,5.957,5.3,6.009S3.37,9.51,2.5,11.155Z" transform="translate(-2.281)"/><path class="be" d="M12.748,10.511c3.262-3.234,7.466-5.145,9.08-3.517s-.1,5.585-3.359,8.817-7.414,5.249-9.027,3.621.044-5.689,3.306-8.922Z" transform="translate(-8.058 -5.851)"/><path class="bf" d="M52.744,164.9l2.534-8.392,8.414,2.7c-3.042,2.853-6.426,5.264-10.947,5.689Z" transform="translate(-48.2 -143.024)"/><path class="bg" d="M155.092,82.874l2.16,8.556c2.541-2.672,4.822-5.545,5.939-9.1l-8.1.542Z" transform="translate(-141.731 -75.239)"/><path class="bh" d="M181.413,8.088c.865-2.609,1.064-6.351-3.012-7.046L175.056,2.89l6.357,5.2Z" transform="translate(-159.975 -0.952)"/><path class="bi" d="M0,173.968c.12,4.306,3.226,4.37,4.549,4.408l-3.057-7.138L0,173.968Z" transform="translate(0 -156.485)"/><path class="bj" d="M155.232,83.1c1.953,1.2,5.888,3.611,5.968,3.655a13.764,13.764,0,0,0,2.054-4.19l-8.022.535Z" transform="translate(-141.859 -75.45)"/><path class="bk" d="M82.113,156.507l3.387,6.534a21.9,21.9,0,0,0,5.007-3.827l-8.394-2.708Z" transform="translate(-75.039 -143.024)"/><path class="bl" d="M12.084,171.325l-.48,5.714a3.5,3.5,0,0,0,3.458,1.248c-.945-2.353-2.834-7.057-2.978-6.962Z" transform="translate(-10.604 -156.564)"/><path class="bm" d="M174.826,2.857l6.728.944A3.676,3.676,0,0,0,178.213.991l-3.387,1.866Z" transform="translate(-159.765 -0.906)"/></g><text class="bn" transform="translate(1217 1200)"><tspan x="-9.338" y="7">Ruby</tspan></text></g></svg>