<svg xmlns="http://www.w3.org/2000/svg" xmlns:xlink="http://www.w3.org/1999/xlink" width="80" height="50" viewBox="0 0 80 50"><defs><style>.a{fill:url(#a);}</style><linearGradient id="a" x1="0.019" y1="-0.047" x2="0.943" y2="0.868" gradientUnits="objectBoundingBox"><stop offset="0" stop-color="#1dcef2"/><stop offset="1" stop-color="#8655e9"/></linearGradient></defs><g transform="translate(-321 -1974)"><path class="a" d="M5559,49a35.429,35.429,0,0,1-15.57-3.906,60.271,60.271,0,0,1-12.714-8.593A81.739,81.739,0,0,1,5519,24a81.389,81.389,0,0,1,11.716-12.5,60.271,60.271,0,0,1,12.714-8.594,32.982,32.982,0,0,1,31.14,0,60.239,60.239,0,0,1,12.714,8.594A81.744,81.744,0,0,1,5599,24a81.4,81.4,0,0,1-11.716,12.5,60.239,60.239,0,0,1-12.714,8.593A35.424,35.424,0,0,1,5559,49Zm0-38a13,13,0,1,0,13,13A13.015,13.015,0,0,0,5559,11Z" transform="translate(-5198 1975)"/></g></svg>