<svg xmlns="http://www.w3.org/2000/svg" xmlns:xlink="http://www.w3.org/1999/xlink" width="77.001" height="77" viewBox="0 0 77.001 77"><defs><style>.a{fill:url(#a);}</style><linearGradient id="a" x1="0.048" y1="0.115" x2="0.932" y2="0.909" gradientUnits="objectBoundingBox"><stop offset="0" stop-color="#1dcef2"/><stop offset="1" stop-color="#8655e9"/></linearGradient></defs><path class="a" d="M5558.414,80h0l-8.584-6.6-10.666,1.476-3.988-10.07-10.059-3.993,1.474-10.677-6.591-8.6,6.678-8.681L5525.2,22.184l10.059-3.992,3.989-10.07L5549.916,9.6,5558.5,3l8.671,6.683,10.666-1.475,3.989,10.07,10.059,3.993-1.475,10.677L5597,41.543l-6.764,8.508,1.474,10.677-10.058,4.081-3.989,10.07L5567,73.4l-8.583,6.6Zm-11.757-41.029L5541,44.628l11.313,11.315.708.707,22.628-22.628-5.657-5.657-16.971,16.971Z" transform="translate(-5520 -3)"/></svg>