<svg xmlns:xlink="http://www.w3.org/1999/xlink" xmlns="http://www.w3.org/2000/svg" width="14" height="15" viewBox="0 0 14 15" fill="none">
<path d="M11.3173 8.66601C10.9015 8.61105 10.4808 8.72165 10.1457 8.97401C9.80883 9.17401 9.16706 9.69101 8.8002 9.55801C6.83123 8.73789 5.25067 7.19503 4.38284 5.24601C4.24789 4.87101 4.7657 4.22501 4.96062 3.88401C5.21124 3.5439 5.3205 3.11994 5.26551 2.70101C4.83606 1.86884 4.2871 1.10406 3.63612 0.431013C3.4232 0.195147 3.13336 0.0427303 2.81842 0.00101318C1.76781 -0.0429868 0.594245 1.35901 0.389321 1.69501C0.133233 2.1212 -0.00139868 2.60937 1.09569e-05 3.10663C0.0014206 3.60389 0.138817 4.09128 0.397318 4.51601C1.65385 7.61601 6.40209 12.294 9.51593 13.601C10.0041 13.847 10.54 13.9835 11.0864 14.001C11.5255 14.0082 11.9553 13.8735 12.3119 13.617C12.5788 13.463 14.0373 12.232 13.9993 11.152C13.9568 10.8389 13.8066 10.5503 13.5744 10.336C12.9076 9.67276 12.1475 9.11049 11.3183 8.66701" fill="white"/>
</svg>