<svg xmlns:xlink="http://www.w3.org/1999/xlink" xmlns="http://www.w3.org/2000/svg" width="268" height="87" viewBox="0 0 268 87" fill="none">
<g clip-path="url(#clip0)">
<path d="M28.098 8.02805V52.265L18.063 50.176V22.076L0 12.041V-0.00195312L28.098 8.02805Z" fill="white"/>
<path d="M14.0492 52.1818V30.1048L4.01416 20.0698V56.1988L8.02817 58.2058L4.01416 60.2128V66.2338L14.0492 72.2548V64.2268L26.0912 58.2058L14.0492 52.1818Z" fill="white"/>
<path d="M32.1128 8.02805V52.265L42.1478 50.176V22.076L60.2108 12.041V-0.00195312L32.1128 8.02805Z" fill="white"/>
<path d="M46.1621 52.1818V30.1048L56.1971 20.0698V56.1988L52.1831 58.2058L56.1971 60.2128V66.2338L46.1621 72.2548V64.2268L34.1201 58.1988L46.1621 52.1818Z" fill="white"/>
<path d="M42.147 80.2799V66.231L30.105 60.21L18.063 66.231V80.2799L30.105 86.301L42.147 80.2799Z" fill="white"/>
<path d="M109.6 9.30015C109.593 8.35623 109.213 7.45342 108.543 6.78819C107.873 6.12297 106.968 5.74917 106.024 5.74815H92.3201V23.0001H96.0401V17.4561C96.0609 17.4718 96.0862 17.4802 96.1121 17.4801C96.1121 17.3841 96.0881 17.3361 96.0401 17.3361L100.984 17.3121L105.76 23.0001H109.6V21.7281C108.4 20.2881 107.08 18.7521 105.856 17.3121H106.024C106.968 17.3111 107.873 16.9373 108.543 16.2721C109.213 15.6069 109.593 14.7041 109.6 13.7601V9.30015ZM96.0401 9.46815H105.832V13.5681H96.0401V9.46815ZM122.656 9.08415H115.5C114.58 9.09301 113.7 9.4625 113.049 10.1132C112.398 10.7639 112.029 11.6439 112.02 12.5641V19.5241C112.03 20.4437 112.4 21.3227 113.051 21.9725C113.701 22.6224 114.581 22.9913 115.5 23.0001H126.136V19.3281H115.7V17.8881H126.14V12.5601C126.135 11.6381 125.766 10.7554 125.114 10.1038C124.461 9.45221 123.578 9.08435 122.656 9.08015V9.08415ZM115.7 14.6721V12.7521H122.468V14.6721H115.7ZM142.46 12.5601C142.455 11.6354 142.084 10.7503 141.428 10.0982C140.772 9.44614 139.885 9.08013 138.96 9.08015H131.8C130.88 9.08901 130 9.4585 129.349 10.1092C128.698 10.7599 128.329 11.6399 128.32 12.5601V14.4081C128.329 15.3284 128.698 16.2084 129.349 16.8591C130 17.5098 130.88 17.8793 131.8 17.8881H138.76V19.3281H131.992V18.8281H128.32V19.5281C128.331 20.447 128.701 21.3249 129.352 21.9739C130.002 22.6229 130.881 22.9913 131.8 23.0001H138.952C139.877 23.0002 140.764 22.6342 141.42 21.9821C142.076 21.33 142.447 20.4449 142.452 19.5201V17.6721C142.447 16.7474 142.076 15.8623 141.42 15.2102C140.764 14.5581 139.877 14.1921 138.952 14.1921H131.992V12.7521H138.76V13.2521H142.46V12.5601ZM153.74 12.7521V9.08015H148.58V4.95215H144.9V19.5201C144.905 20.4463 145.278 21.3326 145.935 21.9849C146.593 22.6372 147.482 23.0023 148.408 23.0001H153.736V19.3281H148.576V12.7521H153.74ZM167.06 9.08015H156.424V12.7521H166.864V14.1921H156.424V19.5201C156.429 20.4408 156.797 21.3223 157.448 21.9737C158.098 22.6251 158.979 22.9939 159.9 23.0001H170.536V12.5601C170.531 11.6388 170.163 10.7567 169.511 10.1052C168.86 9.45373 167.977 9.0854 167.056 9.08015H167.06ZM166.864 19.3281H160.1V17.4081H166.868L166.864 19.3281ZM175.936 9.08015C175.013 9.08508 174.128 9.45267 173.474 10.1037C172.819 10.7547 172.446 11.6369 172.436 12.5601V23.0001H176.1V12.7521H183.612V9.08015H175.936ZM188.636 9.08015C187.716 9.08901 186.836 9.4585 186.185 10.1092C185.534 10.7599 185.165 11.6399 185.156 12.5601V19.5201C185.165 20.4397 185.534 21.3191 186.184 21.9697C186.834 22.6203 187.713 22.9902 188.632 23.0001H195.784C196.705 22.9949 197.588 22.6266 198.239 21.9751C198.891 21.3236 199.259 20.4415 199.264 19.5201V12.5601C199.259 11.6388 198.891 10.7567 198.239 10.1052C197.588 9.45373 196.705 9.0854 195.784 9.08015H188.636ZM188.828 12.7521H195.596V19.3281H188.824L188.828 12.7521ZM211.772 9.08015H201.136V23.0001H204.808V12.7521H211.576V23.0001H215.248V12.5601C215.243 11.6388 214.875 10.7567 214.223 10.1052C213.572 9.45373 212.689 9.0854 211.768 9.08015H211.772ZM227.684 9.08015H220.532C219.612 9.08901 218.732 9.4585 218.081 10.1092C217.43 10.7599 217.061 11.6399 217.052 12.5601V19.5201C217.061 20.4397 217.43 21.3191 218.08 21.9697C218.73 22.6203 219.609 22.9902 220.528 23.0001H231.16V19.3281H220.72V17.8881H231.16V12.5601C231.155 11.6388 230.787 10.7567 230.135 10.1052C229.484 9.45373 228.601 9.0854 227.68 9.08015H227.684ZM220.724 14.6721V12.7521H227.492V14.6721H220.724ZM109.5 41.2721C109.498 40.3307 109.123 39.4283 108.458 38.7626C107.792 38.0968 106.89 37.722 105.948 37.7201H95.7761C95.3094 37.7191 94.847 37.8102 94.4156 37.9884C93.9842 38.1665 93.5922 38.4281 93.2621 38.7582C92.9321 39.0882 92.6705 39.4802 92.4924 39.9116C92.3142 40.343 92.2231 40.8054 92.2241 41.2721V44.6801C92.2231 45.1469 92.3142 45.6093 92.4924 46.0407C92.6705 46.4721 92.9321 46.8641 93.2621 47.1941C93.5922 47.5242 93.9842 47.7858 94.4156 47.9639C94.847 48.142 95.3094 48.2332 95.7761 48.2321H105.736V51.2561H95.9441V49.8401H92.2241V51.4482C92.2231 51.9149 92.3142 52.3773 92.4924 52.8087C92.6705 53.2401 92.9321 53.6321 93.2621 53.9621C93.5922 54.2922 93.9842 54.5538 94.4156 54.7319C94.847 54.91 95.3094 55.0012 95.7761 55.0001H105.952C106.893 54.9972 107.794 54.622 108.459 53.9563C109.124 53.2907 109.498 52.3889 109.5 51.4482V48.0401C109.498 47.0987 109.123 46.1963 108.458 45.5305C107.792 44.8648 106.89 44.49 105.948 44.4882H95.9441V41.4641H105.736V42.8801H109.5V41.2721ZM115.428 41.0801C114.508 41.089 113.628 41.4585 112.977 42.1092C112.326 42.7599 111.957 43.6399 111.948 44.5602V51.5201C111.957 52.441 112.327 53.3216 112.979 53.9725C113.63 54.6233 114.511 54.9923 115.432 55.0001H122.584C123.505 54.9949 124.388 54.6266 125.039 53.9751C125.691 53.3236 126.059 52.4415 126.064 51.5201V44.5602C126.059 43.6388 125.691 42.7567 125.039 42.1052C124.388 41.4537 123.505 41.0854 122.584 41.0801H115.428ZM115.62 44.7522H122.388V51.3281H115.624L115.62 44.7522ZM127.936 36.5001V51.5201C127.945 52.4404 128.314 53.3204 128.965 53.9711C129.616 54.6218 130.496 54.9913 131.416 55.0001H134.44V51.3281H131.632V36.5001H127.936ZM146.752 41.0801V51.3281H139.984V41.0801H136.312V51.5201C136.317 52.4415 136.686 53.3236 137.337 53.9751C137.989 54.6266 138.871 54.9949 139.792 55.0001H146.944C147.865 54.9949 148.748 54.6266 149.399 53.9751C150.051 53.3236 150.419 52.4415 150.424 51.5201V41.0801H146.752ZM161.224 44.7522V41.0801H156.064V36.9521H152.392V51.5201C152.397 52.4463 152.77 53.3326 153.427 53.9849C154.085 54.6372 154.974 55.0023 155.9 55.0001H161.228V51.3281H156.068V44.7522H161.224ZM163.192 55.0001H166.864V41.0801H163.192V55.0001ZM163.192 36.5201V40.2201H166.864V36.5201H163.192ZM172.144 41.0801C171.224 41.089 170.344 41.4585 169.693 42.1092C169.042 42.7599 168.673 43.6399 168.664 44.5602V51.5201C168.673 52.4404 169.042 53.3204 169.693 53.9711C170.344 54.6218 171.224 54.9913 172.144 55.0001H179.3C180.221 54.9949 181.104 54.6266 181.755 53.9751C182.407 53.3236 182.775 52.4415 182.78 51.5201V44.5602C182.775 43.6388 182.407 42.7567 181.755 42.1052C181.104 41.4537 180.221 41.0854 179.3 41.0801H172.144ZM172.336 44.7522H179.1V51.3281H172.336V44.7522ZM195.28 41.0801H184.648V55.0001H188.32V44.7522H195.088V55.0001H198.76V44.5602C198.755 43.6388 198.387 42.7567 197.735 42.1052C197.084 41.4537 196.201 41.0854 195.28 41.0801ZM214.864 44.5602C214.859 43.6354 214.488 42.7503 213.832 42.0982C213.176 41.4461 212.289 41.0801 211.364 41.0801H204.212C203.292 41.089 202.412 41.4585 201.761 42.1092C201.11 42.7599 200.741 43.6399 200.732 44.5602V46.4081C200.741 47.3284 201.11 48.2084 201.761 48.8591C202.412 49.5098 203.292 49.8793 204.212 49.8881H211.172V51.3281H204.4V50.8281H200.728V51.5281C200.737 52.4484 201.106 53.3284 201.757 53.9791C202.408 54.6298 203.288 54.9993 204.208 55.0081H211.36C212.285 55.0082 213.172 54.6422 213.828 53.9901C214.484 53.338 214.855 52.4529 214.86 51.5281V49.6721C214.855 48.7474 214.484 47.8623 213.828 47.2102C213.172 46.5581 212.285 46.1921 211.36 46.1921H204.4V44.7522H211.168V45.2522H214.868L214.864 44.5602ZM225.136 55.0001H228.88V37.7201H225.136V55.0001ZM241.456 41.0801H230.824V55.0001H234.5V44.7522H241.268V55.0001H244.94V44.5602C244.935 43.6381 244.566 42.7554 243.914 42.1038C243.261 41.4522 242.378 41.0843 241.456 41.0801ZM260.944 44.7522V41.0801H250.336C249.416 41.089 248.536 41.4585 247.885 42.1092C247.234 42.7599 246.865 43.6399 246.856 44.5602V51.5201C246.865 52.4404 247.234 53.3204 247.885 53.9711C248.536 54.6218 249.416 54.9913 250.336 55.0001H260.968V51.3281H250.528V44.7522H260.944ZM267.28 51.3281H263.608V55.0001H267.28V51.3281Z" fill="white"/>
</g>
<defs>
<clipPath id="clip0">
<rect width="267.28" height="86.302" fill="white"/>
</clipPath>
</defs>
</svg>