<svg xmlns:xlink="http://www.w3.org/1999/xlink" xmlns="http://www.w3.org/2000/svg" width="14" height="14" viewBox="0 0 14 14" fill="none">
<path d="M13.6021 0.406508C13.4304 0.231275 13.2142 0.105959 12.9768 0.0439584C12.7393 -0.018042 12.4895 -0.0143954 12.2539 0.0545083L0.977567 3.33151C0.731004 3.39895 0.508804 3.53525 0.33703 3.72442C0.165257 3.91358 0.051034 4.14777 0.0077615 4.39951C-0.0207138 4.68535 0.029492 4.97354 0.152959 5.23296C0.276426 5.49238 0.468465 5.71317 0.708343 5.87151L4.23627 8.03351C4.41183 8.14163 4.61883 8.18723 4.82361 8.1629C5.0284 8.13857 5.21892 8.04574 5.36421 7.89951L9.39856 3.83851C9.44657 3.78848 9.50422 3.74867 9.56803 3.72147C9.63184 3.69427 9.7005 3.68025 9.76987 3.68025C9.83924 3.68025 9.9079 3.69427 9.97171 3.72147C10.0355 3.74867 10.0932 3.78848 10.1412 3.83851C10.2389 3.9383 10.2937 4.07238 10.2937 4.21201C10.2937 4.35164 10.2389 4.48572 10.1412 4.58551L6.09582 8.64551C5.94992 8.79217 5.85735 8.98341 5.83286 9.18874C5.80838 9.39408 5.85338 9.6017 5.96071 9.77851L8.1155 13.3365C8.23432 13.5399 8.40483 13.7084 8.60975 13.8248C8.81467 13.9412 9.04674 14.0015 9.28246 13.9995C9.34093 14.0007 9.39942 13.9984 9.45761 13.9925C9.7221 13.9595 9.97115 13.8498 10.1741 13.6771C10.377 13.5044 10.5249 13.2762 10.5996 13.0205L13.9423 1.76751C14.0131 1.53102 14.0188 1.27986 13.959 1.04039C13.8991 0.800915 13.7758 0.581962 13.6021 0.406508Z" fill="#9CA9B5"/>
</svg>